<?xml version="1.0" encoding="UTF-8"?>
<svg id="_Слой_1" data-name="Слой 1" xmlns="http://www.w3.org/2000/svg" viewBox="0 0 80.5 73">
  <path d="M37.4,71.1l2.2,1.7c.2,.1,.4,.2,.6,.2h.3c.2,0,.4-.1,.6-.2l1.3-1c13.3-10.5,38.1-30,38.1-50.3,0-11.9-9.6-21.5-21.5-21.5-7.9,0-14.9,4.2-18.8,11C36.4,4.3,29.2,0,21.5,0,9.6,0,0,9.6,0,21.5c0,20.3,23.4,38.7,37.4,49.6ZM21.4,2.1c7.5,0,14.4,4.4,17.6,11.1,.1,.2,.2,.5,.2,.5,.2,.4,.6,.6,1.1,.6,.3,0,.6-.3,.8-.6,0,0,.2-.4,.3-.6,3.3-6.7,10-10.9,17.5-10.9,10.8,0,19.5,8.7,19.5,19.5,0,19.4-24.3,38.5-37.4,48.7l-.8,.6-1.6-1.4C24.9,58.8,2,40.8,2,21.6,2,10.8,10.7,2.1,21.4,2.1Z"/>
</svg>