<?xml version="1.0" encoding="UTF-8"?>
<svg id="_Слой_2" data-name="Слой 2" xmlns="http://www.w3.org/2000/svg" xmlns:xlink="http://www.w3.org/1999/xlink" viewBox="0 0 48.8 30.9">
  <defs>
    <style>
      .cls-1 {
        fill: #364154;
      }

      .cls-2 {
        fill: #d5d6da;
      }

      .cls-3 {
        fill: #657285;
      }

      .cls-4 {
        fill: #016eb9;
      }

      .cls-5 {
        fill: #131f2d;
      }

      .cls-6 {
        clip-path: url(#clippath);
      }

      .cls-7 {
        fill: #ef6343;
      }

      .cls-8 {
        fill: none;
      }

      .cls-9 {
        fill: #b8c1c9;
      }

      .cls-10 {
        fill: #f9f1cf;
      }

      .cls-11 {
        fill: #00a3fe;
      }

      .cls-12 {
        fill: #ff7955;
      }
    </style>
    <clipPath id="clippath">
      <rect class="cls-8" x="24.01" y="15.63" width="4.92" height="3.96"/>
    </clipPath>
  </defs>
  <g id="_Слой_1-2" data-name="Слой 1">
    <path class="cls-10" d="M45.1,0c2,0,3.7,1.6,3.7,3.7V27.2c0,2-1.6,3.7-3.7,3.7H17.5l-13.8-1c-2,0-3.7-1.6-3.7-3.7L.5,5.4C.5,3.4,2.1,1.7,4.2,1.7L17.5,.1h27.6v-.1Z"/>
    <g>
      <g>
        <path class="cls-3" d="M27.42,23.28H15.12v-.55c0-1.5,1.23-2.73,2.73-2.73h9.57v3.28Z"/>
        <rect class="cls-1" x="16.22" y="19.59" width="10.94" height=".55"/>
        <path class="cls-9" d="M16.08,23.28h5.74V6.33h-.96c-2.6,0-4.78,2.19-4.78,4.78v12.17Z"/>
        <path class="cls-2" d="M28.38,11.11h-3.96v9.84h6.15v-7.52c0-1.37-.96-2.32-2.19-2.32Z"/>
        <path class="cls-2" d="M25.1,7.01V23.28h-5.33V8.52c0-1.23,.82-2.19,1.91-2.19h2.73c.41,0,.68,.27,.68,.68Z"/>
        <path class="cls-3" d="M28.52,20.82h-4.1v-6.29h.68c1.91,0,3.42,1.5,3.42,3.42v2.87Z"/>
        <path class="cls-3" d="M24.28,14.67c-.14,0-.41,.14-.41,.41v5.88h4.1v-6.29s-3.69,0-3.69,0Z"/>
        <path class="cls-1" d="M28.11,14.67h-.41v6.29h.82v-5.88c0-.27-.14-.41-.41-.41Z"/>
        <rect class="cls-9" x="21.14" y="20" width="13.26" height="3.28"/>
        <rect class="cls-2" x="34.26" y="20" width="3.96" height="3.28"/>
        <polygon class="cls-3" points="24.01 11.11 19.77 11.11 19.77 23.28 21.14 23.28 21.14 13.44 24.01 11.11"/>
        <g>
          <g>
            <rect class="cls-4" x="32.09" y="15.73" width="3.83" height="4.37" transform="translate(15.98 51.87) rotate(-89.82)"/>
            <polygon class="cls-11" points="37.54 16.04 33.99 16.04 33.99 19.86 37.54 19.86 37.54 16.04"/>
          </g>
          <g>
            <rect class="cls-4" x="29.37" y="17.27" width="2.46" height="2.87" transform="translate(11.79 49.25) rotate(-89.82)"/>
            <polygon class="cls-11" points="32.76 17.4 30.57 17.4 30.57 19.86 32.76 19.86 32.76 17.4"/>
          </g>
        </g>
        <rect class="cls-1" x="21.14" y="19.59" width="13.12" height=".55"/>
        <rect class="cls-3" x="34.27" y="19.76" width="3.96" height=".55"/>
        <path class="cls-2" d="M24.01,14.94c0-.14,.14-.41,.41-.41h3.01v-3.55h-3.83c-1.23,0-2.19,.96-2.19,2.19v6.29h2.73v-4.51h-.14Z"/>
      </g>
      <g>
        <path class="cls-5" d="M18.27,9.06h-.27c-.41,0-.82,.41-.82,.82v1.78c0,.41,.41,.82,.82,.82h.27c.41,0,.82-.41,.82-.82v-1.78c0-.55-.41-.82-.82-.82Z"/>
        <path class="cls-1" d="M17.86,9.06h-.27c-.41,0-.82,.41-.82,.82v1.78c0,.41,.41,.82,.82,.82h.27c.41,0,.82-.41,.82-.82v-1.78c.14-.55-.27-.82-.82-.82Z"/>
        <path class="cls-3" d="M19.5,15.49v-.27c0-.27-.27-.55-.55-.55h-1.64c-.27,0-.55,.27-.55,.55v.27c0,.27,.27,.55,.55,.55h1.64c.27,.14,.55-.14,.55-.55Z"/>
        <path class="cls-1" d="M19.22,15.49v-.27c0-.27-.27-.55-.55-.55h-1.64c-.27,0-.55,.27-.55,.55v.27c0,.27,.27,.55,.55,.55h1.64c.27,.14,.55-.14,.55-.55Z"/>
      </g>
      <path class="cls-5" d="M17.31,10.16h0s.14,0,0,0l.14,1.09s0,.14-.14,.14h0s-.14,0-.14-.14l.14-1.09q-.14,0,0,0Z"/>
      <rect class="cls-2" x="17.16" y="9.5" width=".14" height=".96" transform="translate(-2.43 6.86) rotate(-21.08)"/>
      <path class="cls-5" d="M18.13,10.16h0q.14,0,0,0l.14,1.09s0,.14-.14,.14h0s-.14,0-.14-.14l.14-1.09c-.14,0,0,0,0,0Z"/>
      <path class="cls-11" d="M16.9,8.79h0c-.14,0-.14,.14-.14,.27l.14,.55c0,.14,.14,.14,.27,.14h0c.14,0,.14-.14,.14-.27l-.27-.55c0-.14-.14-.14-.14-.14Z"/>
      <path class="cls-2" d="M17.04,10.84l.14,.41h.14v-.14l-.14-.27s0-.14,.14-.14l.41-.14s.14,0,.14,.14l.27,.55h.14v-.14l-.27-.68c0-.14-.14-.14-.27-.14l-.41,.14c-.14,.14-.27,.27-.27,.41Z"/>
      <g>
        <path class="cls-12" d="M10.88,14.81s0,.41,.14,.55c0,.14,.27,.41,.41,.41s0-.41,0-.41c0-.14,.14,.14,.14,.14v-.27c0-.14-.27-.27-.27-.41-.14-.27-.41,0-.41,0Z"/>
        <path class="cls-12" d="M16.49,9.47l.14-.27s-.14-.41,.27-.68c0,0,.14-.14,.27,0,.14,.14-.14,.14-.14,.27,0,.27,0,.41-.14,.41l-.14,.14-.27,.14Z"/>
        <path class="cls-12" d="M16.49,9.47l.14-.27s-.14-.41,.27-.68c0,0,.14-.14,.27,0,.14,.14-.14,.14-.14,.27,0,.27,0,.41-.14,.41l-.14,.14-.27,.14Z"/>
        <path class="cls-4" d="M12.25,9.88s.68,1.78,3.01,2.05c.68,.14,1.78-2.46,1.78-2.46,0,0-.14-.14-.41-.14,0,0-1.23,1.23-1.5,1.37-.14,.14-1.5-.96-2.05-1.09-.55,0-.82,.27-.82,.27Z"/>
        <path class="cls-4" d="M12.25,9.88s.68,1.78,3.01,2.05c.68,.14,1.78-2.46,1.78-2.46,0,0-.14-.14-.41-.14,0,0-1.23,1.23-1.5,1.37-.14,.14-1.5-.96-2.05-1.09-.55,0-.82,.27-.82,.27Z"/>
        <g>
          <path class="cls-5" d="M9.79,22.05s-.27,.27-.27,.41,.27,.27,.27,.55,.14,.27,.27,.27h.55s.14-.14-.14-.14-.27-.27-.27-.55v-.55h-.41Z"/>
          <path class="cls-5" d="M13.07,22.6s0,.55,.14,.68h1.5s0-.14-.27-.27c-.27,0-.68-.14-.68-.55-.14-.27-.68,.14-.68,.14Z"/>
          <path class="cls-1" d="M14.3,14.81s-.14,.96-.14,2.19c-.14,1.64-.27,3.55-.27,3.96,0,.68-.14,1.64-.14,1.64,0,0-.27,.27-.68,.14,0,0-.41-1.5-.55-3.01v-.14c-.14-1.64-.27-4.92-.27-4.92l2.05,.14Z"/>
          <path class="cls-5" d="M14.3,14.81s-.14,.96-.14,2.19l-1.78,2.73v-.14c-.14-1.64-.27-4.92-.27-4.92l2.19,.14Z"/>
          <path class="cls-1" d="M14.03,14.94s-1.37,3.55-2.32,5.19c-.96,1.64-1.23,2.19-1.23,2.19,0,0-.55-.27-.55-.41,0,0,.41-3.14,.96-3.96,.41-.41,.82-1.78,.82-2.19s.14-1.37,.14-1.37l2.19,.55Z"/>
        </g>
        <path class="cls-12" d="M12.11,9.47s.96,.41,1.5,.27c0,0-.14-.14-.41-.27v-.55l-.41-.27-.41-.27c.27,.68-.27,1.09-.27,1.09Z"/>
        <path class="cls-11" d="M11.57,14.4l.14,.14c.41,.14,.82,.27,1.23,.41h1.37v-1.5h0v-.96c0-.68-.14-1.37-.14-1.78-.14-.41-.41-.68-.55-.96l-.14-.14c-.14,0-.41,0-.55-.14-.27-.14-.41-.27-.55-.14-.27,.27-.55,.68-.55,1.37,0,.41-.14,.68-.14,1.23v2.46c-.14-.14-.14,0-.14,0Z"/>
        <path class="cls-4" d="M11.57,14.4c3.42,0,.68-3.69,.68-3.69l-.55-.14v1.78c0,.82-.14,1.64-.14,2.05Z"/>
        <path class="cls-7" d="M12.52,8.52s.27,.41,.68,.55v-.27l-.41-.27h-.27Z"/>
        <path class="cls-12" d="M13.48,8.79s-.96,.14-.96-.41c-.14-.55-.27-.96,.27-1.09,.55-.14,.68,.14,.82,.27s.14,1.23-.14,1.23Z"/>
        <path class="cls-5" d="M12.11,7.29h0c0-.14,0-.27,.14-.27v.14c.14-.14,.41-.27,1.09-.14,.96,.14,.68,.68,.55,.68-.14,.14-.41-.14-.68-.14s-.27,.41-.41,.41,0,0-.14-.14c-.14,0-.14,.14-.14,.27s-.14,.27-.14,.27l-.14-.14c0-.14-.14-.82-.14-.96h0Z"/>
        <path class="cls-11" d="M12.25,9.2s-.55,.27-.82,.68c-.41,.68-.96,3.01-.96,3.28s.41,1.78,.41,1.78c0,0,.41,0,.55-.27,0,0-.14-1.64,0-1.78,0-.14,1.64-2.19,1.37-2.6-.27-.27-.55-1.09-.55-1.09Z"/>
        <path class="cls-12" d="M16.63,9.34v-.14c.14-.14,.14-.27,.14-.27,.14,0,0,.14,0,.41,.14,0,0,.14-.14,0Z"/>
        <path class="cls-12" d="M16.63,9.34v-.14c.14-.14,.14-.27,.14-.27,.14,0,0,.14,0,.41,.14,0,0,.14-.14,0Z"/>
      </g>
      <g>
        <path class="cls-5" d="M38.77,22.6s0,.68-.14,.68h-1.5s0-.14,.27-.27c.27,0,.68-.27,.82-.55s.55,.14,.55,.14Z"/>
        <path class="cls-1" d="M38.77,22.6s-.27,.14-.41,.14h-.41s0-.41-.27-1.5c-.14-.55-.27-1.23-.55-2.05-.82-2.32-.96-3.69-.96-3.83h0l2.32-.96s-.27,3.14,.14,4.37c0,.14,.14,.41,.14,.55,0,1.37,0,3.28,0,3.28Z"/>
        <path class="cls-5" d="M38.63,19.32l-.96,1.91c-.14-.55-.27-1.23-.55-2.05-.82-2.32-.96-3.69-.96-3.83h0l2.32-.96s-.27,3.14,.14,4.37c-.14,.14-.14,.41,0,.55Z"/>
        <path class="cls-5" d="M36.99,22.6s0,.68-.14,.68h-1.5s0-.27,.27-.27,.68-.27,.82-.55c0-.27,.55,.14,.55,.14Z"/>
        <path class="cls-1" d="M35.63,14.4s0,2.05,.27,4.65c.41,2.46,.27,3.55,.27,3.55,0,0,.27,.14,.41,.14h.55s.55-2.46,.41-3.83c-.14-1.23,.68-4.37,.68-4.37l-2.6-.14Z"/>
        <path class="cls-4" d="M37.54,9.47s1.23,1.23,1.23,1.64-.55,1.23-.55,1.23l-.68-2.87Z"/>
        <path class="cls-12" d="M37.27,9.61l-.41,.27-.68-.14s0-.27,.14-.41h0v-.27l.55-.27,.27-.14v.27c0,.41,.14,.68,.14,.68Z"/>
        <path class="cls-4" d="M36.17,9.47l.96-.27c.14,0,.14,.14,.14,.14l-1.23,.27c0,.14,0-.14,.14-.14Z"/>
        <path class="cls-11" d="M38.5,14.67c-.14,.55-2.32,.68-2.87,.14v-.68c0-.82,.14-1.91,.27-2.46,0-.27,0-.55,.14-.82,.14-.55,.27-.96,.27-.96,0,0,1.09-.41,1.23-.27,.82,.14,1.09,4.51,.96,5.06Z"/>
        <path class="cls-4" d="M35.49,14.12c0-.82,.14-1.91,.27-2.46,0-.27,0-.55,.14-.82l.68-.14c-.14-.14,.55,2.46-1.09,3.42Z"/>
        <path class="cls-12" d="M35.9,13.03v.14q-.14,.14-.14,.27c0,.14,.27,.27,.27,.14,.14,0,.14-.14,.14-.14,0,0,.14-.41-.14-.55-.14-.14-.14,.14-.14,.14Z"/>
        <path class="cls-11" d="M36.58,9.61s-.68,.14-1.09,.82c-.55,.68-.82,1.23-.68,1.5s.96,1.23,1.09,1.23,.41-.14,.41-.41c0,0-.55-.96-.41-.96,0,0,.68-.68,.82-.41,0,.55-.14-1.78-.14-1.78Z"/>
        <path class="cls-7" d="M37.13,8.79c-.14,.27-.68,.41-.82,.55h0v-.27l.55-.27c.27-.14,.27,0,.27,0Z"/>
        <path class="cls-12" d="M36.17,8.93s.96,.27,1.23-.27c.14-.68,.41-.96-.14-1.23-.68-.27-.82,0-.96,.14-.27,.27-.41,1.23-.14,1.37Z"/>
        <path class="cls-5" d="M36.17,7.56s0,.68,.27,.68c.14,0,.27,0,.27,.14,0,.27-.27,.41,.27,.55,.41,0,1.09-1.09,.96-1.37-.41-.68-2.32-.82-1.78,0Z"/>
      </g>
      <g class="cls-6">
        <g>
          <polygon class="cls-4" points="27.56 15.9 23.19 15.9 23.19 19.73 27.56 19.73 27.56 15.9"/>
          <polygon class="cls-11" points="28.93 15.9 25.37 15.9 25.37 19.73 28.79 19.86 28.93 15.9"/>
        </g>
      </g>
      <path class="cls-11" d="M17.04,15.08c0,.14-.14,.14,0,0-.14,.14-.27,.14-.27,0s0-.14,.27,0c-.14-.14,0,0,0,0Z"/>
      <path class="cls-11" d="M17.58,15.08q0,.14,0,0c-.14,.14-.27,.14-.27,0s.14-.14,.27,0c0-.14,0,0,0,0Z"/>
      <path class="cls-12" d="M18.27,15.08c0,.14-.14,.14,0,0-.14,.14-.27,.14-.27,0s0-.14,.27,0c-.14-.14,0,0,0,0Z"/>
      <path class="cls-11" d="M18.81,15.08q0,.14,0,0c-.14,.14-.27,.14-.27,0s.14-.14,.27,0c0-.14,0,0,0,0Z"/>
      <path class="cls-11" d="M17.04,15.76s-.14,.14,0,0c-.14,.14-.27,.14-.27,0s0-.14,.27,0c-.14-.14,0-.14,0,0Z"/>
      <path class="cls-12" d="M17.58,15.76s0,.14,0,0c-.14,.14-.27,.14-.27,0s.14-.14,.27,0q0-.14,0,0Z"/>
      <path class="cls-12" d="M18.27,15.76s-.14,.14,0,0c-.14,.14-.27,.14-.27,0s0-.14,.27,0c-.14-.14,0-.14,0,0Z"/>
      <path class="cls-12" d="M18.81,15.76s0,.14,0,0c-.14,.14-.27,.14-.27,0s.14-.14,.27,0q0-.14,0,0Z"/>
      <g>
        <polygon class="cls-3" points="24.28 8.79 21.14 8.79 20.86 8.65 24.01 8.65 24.28 8.79"/>
        <polygon class="cls-3" points="24.28 8.93 21.14 8.93 20.86 8.79 24.01 8.79 24.28 8.93"/>
        <polygon class="cls-3" points="24.28 9.2 21.14 9.2 20.86 9.06 24.01 9.06 24.28 9.2"/>
        <polygon class="cls-3" points="24.28 9.47 21.14 9.47 20.86 9.2 24.01 9.2 24.28 9.47"/>
        <polygon class="cls-3" points="24.28 9.61 21.14 9.61 20.86 9.47 24.01 9.47 24.28 9.61"/>
      </g>
      <path class="cls-5" d="M18.68,9.2s-.14,.14,0,0c-.14,.14-.14,0-.14,0h.14c-.14,0,0,0,0,0Z"/>
      <path class="cls-5" d="M18.68,12.21c0,.14-.14,.14,0,0-.14,.14-.14,0-.14,0h.14c-.14,0,0,0,0,0Z"/>
      <path class="cls-5" d="M16.9,12.21q0,.14,0,0c-.14,.14-.14,0-.14,0h.14Z"/>
      <path class="cls-5" d="M16.63,14.81q0,.14,0,0c-.14,.14-.14,0-.14,0h.14Z"/>
      <path class="cls-5" d="M19.09,14.81q0,.14,0,0c-.14,.14-.14,0-.14,0h.14Z"/>
      <path class="cls-5" d="M16.63,15.9q0,.14,0,0c-.14,.14-.14,0-.14,0h.14Z"/>
      <path class="cls-5" d="M19.09,15.9q0,.14,0,0c-.14,.14-.14,0-.14,0h.14Z"/>
    </g>
  </g>
</svg>