<?xml version="1.0" encoding="UTF-8"?>
<svg id="_Слой_2" data-name="Слой 2" xmlns="http://www.w3.org/2000/svg" viewBox="0 0 48.7 30.9">
  <defs>
    <style>
      .cls-1 {
        fill: #944e39;
      }

      .cls-2 {
        fill: #f0c6b4;
      }

      .cls-3 {
        fill: #fff;
      }

      .cls-4 {
        fill: #e6e1dd;
      }

      .cls-5 {
        fill: #a1b4bf;
      }

      .cls-6 {
        fill: #d1d1d1;
      }

      .cls-7 {
        fill: #5f9fad;
      }

      .cls-8 {
        fill: #f6f6f6;
      }

      .cls-9 {
        fill: #d18067;
      }

      .cls-10 {
        opacity: .5;
      }

      .cls-11 {
        fill: #f4efe9;
      }

      .cls-12 {
        fill: #8ccccb;
      }

      .cls-13 {
        fill: #b4ced6;
      }

      .cls-14 {
        fill: #574943;
      }

      .cls-15 {
        fill: #575756;
      }

      .cls-16 {
        fill: #736656;
      }

      .cls-17 {
        fill: #b2b2b2;
      }

      .cls-18 {
        fill: #7dd2e3;
      }

      .cls-19 {
        fill: #211a1a;
      }

      .cls-20 {
        fill: #ffec7a;
      }

      .cls-21 {
        opacity: .2;
      }

      .cls-22 {
        fill: #f2b63d;
      }

      .cls-23 {
        fill: #ffc654;
      }

      .cls-24 {
        fill: #544540;
      }

      .cls-25 {
        fill: #6cb5c4;
      }

      .cls-26 {
        fill: #0a0808;
      }

      .cls-27 {
        fill: #c7a495;
      }

      .cls-28 {
        fill: #836e69;
      }

      .cls-29 {
        fill: #fa5c52;
      }

      .cls-30 {
        fill: #9d9d9c;
      }

      .cls-31 {
        fill: #e3bd5e;
      }

      .cls-32 {
        fill: #2d5a78;
      }

      .cls-33 {
        fill: #ab281f;
      }

      .cls-34 {
        fill: #e8f3ff;
      }

      .cls-35 {
        opacity: .3;
      }

      .cls-36 {
        fill: #dadada;
      }

      .cls-37 {
        fill: #ab9d67;
      }

      .cls-38 {
        fill: #cc934c;
      }

      .cls-39 {
        fill: #362c29;
      }

      .cls-40 {
        fill: #428aa8;
      }

      .cls-41 {
        fill: #d8d1c7;
      }

      .cls-42 {
        fill: #c8dfe8;
      }

      .cls-43 {
        fill: #3c3c3b;
      }

      .cls-44 {
        fill: #c84030;
      }

      .cls-45 {
        fill: #a39c95;
      }

      .cls-46 {
        fill: #706f6f;
      }

      .cls-47 {
        fill: #efc58b;
      }

      .cls-48 {
        fill: #878787;
      }

      .cls-49 {
        fill: #377691;
      }

      .cls-50 {
        fill: #8a1c14;
      }

      .cls-51 {
        fill: #e0dedc;
      }

      .cls-52 {
        fill: #baf3ff;
      }

      .cls-53 {
        fill: #d6a950;
      }

      .cls-54 {
        fill: #e09d38;
      }

      .cls-55 {
        fill: #fbe979;
      }

      .cls-56 {
        fill: #5e4439;
      }

      .cls-57 {
        fill: #685750;
      }

      .cls-58 {
        fill: #c6c6c6;
      }

      .cls-59 {
        fill: #1d1d1b;
      }

      .cls-60 {
        fill: #b5afa7;
      }

      .cls-61 {
        fill: #e3d791;
      }

      .cls-62 {
        fill: #ededed;
      }
    </style>
  </defs>
  <g id="_Слой_1-2" data-name="Слой 1">
    <g>
      <path class="cls-34" d="M45,0c2,0,3.7,1.6,3.7,3.7V27.2c0,2-1.6,3.7-3.7,3.7H17.5l-13.8-1c-2,0-3.7-1.6-3.7-3.7L.5,5.4C.5,3.4,2.1,1.7,4.2,1.7L17.5,.1h27.5v-.1Z"/>
      <g>
        <g>
          <polygon class="cls-35" points="15.68 19.69 15.68 18.85 14.65 18.25 13.18 18.25 12.15 18.85 12.15 19.69 13.18 20.29 14.65 20.29 15.68 19.69"/>
          <polygon class="cls-19" points="14.79 18.6 15.08 18.87 15.51 19.14 15.57 19.34 15.57 19.4 15.42 19.54 15.16 19.55 14.83 19.36 14.59 19.15 14.35 19.1 14.15 19 14.08 18.86 14.08 18.8 14.26 18.51 14.79 18.6"/>
          <polygon class="cls-19" points="13.17 18.99 13.29 19.28 13.55 19.7 13.55 19.77 13.38 19.91 13.09 19.91 12.82 19.76 12.43 19.03 12.43 18.97 13.17 18.99"/>
          <polygon class="cls-1" points="14.79 18.54 15.08 18.81 15.51 19.08 15.57 19.23 15.57 19.34 15.42 19.47 15.16 19.49 14.83 19.3 14.59 19.09 14.35 19.03 14.15 18.94 14.08 18.8 14.08 18.52 14.26 18.45 14.79 18.54"/>
          <polygon class="cls-1" points="13.17 18.93 13.29 19.22 13.52 19.53 13.55 19.7 13.38 19.85 13.09 19.85 12.82 19.69 12.43 18.97 12.46 18.7 13.17 18.93"/>
          <polygon class="cls-2" points="15.26 11.98 15.38 12.93 15.46 13.1 15.71 13.04 15.85 11.77 15.85 11.1 15.57 10.63 15.16 10.73 15.26 11.98"/>
          <polygon class="cls-27" points="15.3 11.27 15.68 11.13 15.26 11.41 15.3 11.27"/>
          <polygon class="cls-11" points="15.08 9.54 15.26 9.62 15.42 9.93 15.59 10.59 15.51 10.79 15.2 10.93 14.74 9.87 15.08 9.54"/>
          <polygon class="cls-27" points="13.81 9.29 13.67 9.62 13.61 9.96 13.81 10.23 14.26 10.36 14.54 10.34 14.69 10.1 14.52 9.24 13.82 9.14 13.81 9.29"/>
          <polygon class="cls-32" points="13.18 12.76 13 12.1 13 11.77 13.44 11.77 13.55 12.76 13.29 13 13.18 12.76"/>
          <polygon class="cls-3" points="14.59 9.97 14.46 10.25 14.09 10.17 13.75 9.83 13.67 9.62 13.52 9.84 13.41 10.06 13.21 10.1 13.03 10.33 12.77 11.4 12.92 11.87 13.24 12.4 13.25 12.77 13.25 13.2 13.72 13.32 14.75 12.74 15.33 11.28 15.4 11.06 15.4 10.48 15.22 10.06 14.98 9.77 14.59 9.97"/>
          <polygon class="cls-49" points="14.06 14.71 14.29 16.29 14.1 16.81 14.01 18.41 14.18 18.66 14.52 18.75 14.86 18.55 15.22 16.47 15.33 14.88 15.26 13.42 13.91 13.96 14.06 14.71"/>
          <polygon class="cls-3" points="15.26 13.42 15.25 13.54 15.1 13.91 15.12 13.99 15.2 13.99 15.46 13.82 15.63 13.56 15.71 13.04 15.58 12.93 15.35 12.93 15.24 12.99 15.17 13.25 15.26 13.42"/>
          <polygon class="cls-40" points="15.26 10.28 14.69 10.68 13.87 11.04 13.95 12.03 13.73 12.78 13.44 12.94 13.18 12.76 12.85 13.63 12.79 16.19 12.53 16.83 12.43 18.63 12.59 18.94 12.91 19.03 13.2 18.92 13.46 16.85 13.68 16.46 14.21 14.4 14.64 14.16 15.26 13.42 15.26 12.07 15.4 11.19 15.36 10.65 15.26 10.28"/>
          <polygon class="cls-40" points="14.31 9.72 14.52 9.82 14.81 10.13 14.94 10.65 15.26 10.48 15.08 9.93 14.74 9.55 14.64 9.49 14.31 9.72"/>
          <polygon class="cls-40" points="13.2 10.09 13.64 10.3 13.93 10.61 14.06 11.13 14.37 10.96 14.19 10.4 13.86 10.03 13.51 9.83 13.2 10.09"/>
          <polygon class="cls-6" points="12.36 10.56 12.43 10.15 12.8 9.97 13.15 10.07 13.34 10.4 13.27 10.6 13.06 10.87 12.56 10.87 12.36 10.56"/>
          <polygon class="cls-2" points="12.26 10.11 12.46 10.67 12.54 10.86 12.73 10.96 13.1 10.85 13.29 10.63 13.25 10.28 13.17 10.17 12.96 9.96 12.54 9.96 12.26 10.11"/>
          <polygon class="cls-27" points="13.03 10.03 12.79 10.17 12.77 10.06 12.96 9.96 13.03 10.03"/>
          <polygon class="cls-2" points="15.05 8.64 15.21 8.9 15.22 9.31 15.13 9.43 15.13 9.56 14.92 10.14 14.68 10.28 14.54 10.24 14.07 9.82 14.03 9.62 13.89 9.49 13.85 9.29 13.81 9.03 14.06 8.62 14.69 8.44 15.05 8.64"/>
          <polygon class="cls-57" points="13.85 9.29 13.88 9.19 13.98 9.19 14.07 9.29 14.07 9.42 14.13 9.49 14.25 9.49 14.29 9.39 14.37 9.26 14.37 9.1 14.44 9 14.63 9.05 14.94 9.04 14.85 9.14 15.15 9.08 15.26 8.87 15.1 8.58 14.83 8.32 14.97 8.28 14.5 8.2 14.07 8.32 13.81 8.51 13.73 8.75 13.73 9.05 13.79 9.28 13.85 9.29"/>
          <polygon class="cls-2" points="13.49 8.39 13.2 8.73 12.58 9.36 12.29 9.73 12.26 10.11 12.39 10.25 12.79 10.17 13.23 9.64 13.66 8.84 13.81 8.62 13.95 8.47 13.7 8.26 13.49 8.39"/>
          <polygon class="cls-3" points="13.49 8.39 13.74 8.42 13.83 8.5 13.81 8.62 13.93 8.58 14.31 8.31 14.44 8.32 14.5 8.39 14.57 8.31 14.54 8.17 14.41 7.96 14.17 7.91 13.89 7.96 13.49 8.39"/>
          <polygon class="cls-11" points="13.15 10.07 13.21 10.52 12.94 10.79 12.59 10.81 12.36 10.56 12.73 11.37 13 11.56 13.41 11.42 13.55 10.84 13.42 10.36 13.15 10.07"/>
        </g>
        <g>
          <polygon class="cls-35" points="29.62 13.83 29.62 13.09 28.71 12.57 27.43 12.57 26.52 13.09 26.52 13.83 27.43 14.36 28.71 14.36 29.62 13.83"/>
          <polygon class="cls-28" points="28.67 12.83 28.93 12.97 29.57 13.3 29.57 13.36 29.55 13.53 29.14 13.55 28.61 13.35 28.53 13.35 28.06 13.31 27.82 13.17 27.82 13.11 27.98 12.72 28.67 12.83"/>
          <polygon class="cls-28" points="27.29 13.21 27.37 13.46 27.52 13.77 27.56 14 27.56 14.06 27.31 14.13 27.02 14.1 26.8 13.87 26.62 13.31 26.62 13.25 27.29 13.21"/>
          <polygon class="cls-47" points="28.67 12.77 28.93 12.91 29.51 13.14 29.57 13.3 29.55 13.48 29.14 13.5 28.61 13.29 28.53 13.29 28.06 13.25 27.82 13.11 27.87 12.8 27.98 12.66 28.67 12.77"/>
          <polygon class="cls-27" points="27.62 3.74 27.55 3.99 27.5 4.2 27.7 4.48 28.09 4.62 28.44 4.5 28.58 4.36 28.5 3.88 27.87 3.61 27.6 3.63 27.62 3.74"/>
          <polygon class="cls-2" points="29.43 4.59 29.55 4.86 29.58 5.59 29.36 6.66 29.26 6.72 28.97 6.72 29.02 4.83 29.43 4.59"/>
          <polygon class="cls-27" points="29.19 5.02 29.46 4.91 29.19 5.13 29.19 5.02"/>
          <polygon class="cls-11" points="28.83 3.76 28.99 3.79 29.14 3.94 29.23 4.15 29.31 4.41 29.43 4.57 29.39 4.83 29.15 4.96 28.6 4.14 28.83 3.76"/>
          <polygon class="cls-32" points="27.07 6.96 27.04 6.33 27.23 6.52 27.29 7.09 27.06 7.21 27.07 6.96"/>
          <polygon class="cls-3" points="28.45 4.24 28.37 4.48 27.96 4.48 27.67 4.26 27.55 3.99 27.24 4.24 27.21 4.4 26.98 4.49 26.68 4.72 26.81 5.97 27.03 6.42 27.18 6.79 27.12 7.11 27.19 7.37 27.94 7.37 28.62 6.73 29.22 5.56 29.29 5.06 29.16 4.54 28.97 4.24 28.75 4.04 28.45 4.24"/>
          <polygon class="cls-49" points="27.87 9.03 28.1 10.42 27.87 11.07 27.87 12.67 28.1 12.86 28.49 12.91 28.72 12.75 28.84 10.92 29.01 10.39 29.19 8.76 29.12 7.83 27.87 8.33 27.87 9.03"/>
          <polygon class="cls-47" points="27.29 13.15 27.37 13.4 27.52 13.71 27.56 13.9 27.56 14 27.31 14.07 27.02 14.04 26.8 13.81 26.62 13.25 26.62 13.04 27.29 13.15"/>
          <polygon class="cls-40" points="29.14 4.59 28.58 5.03 27.77 5.36 27.9 6.13 27.86 6.77 27.63 7.11 27.35 7.18 27.13 7.03 27.07 6.96 26.78 7.71 26.75 10.28 26.51 11.09 26.61 13.01 26.7 13.22 27.06 13.29 27.35 13.15 27.43 10.9 27.7 10.33 28.08 8.6 28.6 8.39 29.12 7.83 29.1 7.58 29.05 6.57 29.23 5.51 29.23 4.96 29.14 4.59"/>
          <polygon class="cls-40" points="28.58 4.4 28.74 4.61 28.85 4.93 29.08 4.8 28.96 4.45 28.78 4.14 28.58 4.4"/>
          <polygon class="cls-2" points="28.97 3.18 28.95 3.4 28.93 3.45 28.92 3.77 28.8 4.3 28.54 4.43 28.18 4.26 27.88 4.02 27.85 3.86 27.72 3.79 27.64 3.67 27.58 3.63 27.55 3.39 27.71 3.03 28.35 2.87 28.9 2.93 28.97 3.18"/>
          <polygon class="cls-14" points="27.64 3.67 27.6 3.5 27.67 3.37 27.8 3.44 27.85 3.56 27.94 3.59 27.96 3.48 28.28 3.42 28.48 3.24 28.61 3.22 28.56 3.39 28.83 3.2 28.91 3.06 29.03 3.16 28.96 2.84 28.84 2.62 28.65 2.48 28.34 2.32 28.21 2.38 27.97 2.35 27.67 2.49 27.5 2.68 27.41 2.89 27.39 3.16 27.45 3.41 27.55 3.65 27.62 3.74 27.64 3.67"/>
          <polygon class="cls-39" points="28.3 2.44 28.47 2.54 28.73 2.78 28.43 2.56 28.3 2.44"/>
          <polygon class="cls-3" points="27 7.57 27.4 7.51 27.49 7.66 27.81 7.8 27.94 8.14 27.73 8.33 27.4 8.36 26.8 8.03 26.75 7.9 26.75 7.69 27 7.57"/>
          <polygon class="cls-2" points="26.32 6.34 26.07 6.51 26.32 6.78 27 7.57 26.97 7.7 26.85 7.83 26.75 7.9 25.71 7.19 25.42 6.83 25.36 6.27 25.72 5.82 26.18 5.78 26.32 6.34"/>
          <polygon class="cls-11" points="27.27 4.9 26.93 4.7 26.61 4.73 26.2 5.14 25.71 5.77 25.79 6.11 26.07 6.35 26.39 6.38 27.17 5.61 27.29 5.21 27.27 4.9"/>
          <polygon class="cls-40" points="26.98 4.49 27.39 4.61 27.63 4.86 27.78 5.13 27.92 5.43 28.17 5.26 28.07 5 27.94 4.74 27.67 4.39 27.24 4.24 26.98 4.49"/>
          <polygon class="cls-3" points="29.05 6.57 29.05 6.99 29.02 7.2 28.94 7.39 29.02 7.62 29.28 7.51 29.43 7.12 29.36 6.66 29.19 6.55 29.05 6.57"/>
          <polygon class="cls-27" points="26.07 6.51 25.74 6.58 25.8 6.64 26.07 6.51"/>
        </g>
        <g>
          <g>
            <g>
              <polygon class="cls-17" points="17.23 27.79 11.81 24.35 31.47 13 36.89 16.12 17.23 27.79"/>
              <polygon class="cls-15" points="36.89 17.23 17.23 28.58 17.11 27.79 17.23 27.47 36.89 16.12 36.89 17.23"/>
              <polygon class="cls-48" points="17.23 28.58 11.81 25.46 11.81 24.35 17.23 27.47 17.23 28.58"/>
            </g>
            <g>
              <polygon class="cls-17" points="17.17 23.65 12.79 20.81 30.85 10.38 35.22 12.91 17.17 23.65"/>
              <polygon class="cls-15" points="35.22 16.47 17.17 26.9 17.06 23.65 17.17 23.34 35.22 12.91 35.22 16.47"/>
              <polygon class="cls-48" points="17.17 26.9 12.79 24.37 12.79 20.81 17.17 23.34 17.17 26.9"/>
              <polygon class="cls-35" points="17.17 22.92 12.79 20.39 12.79 21.79 17.17 24.32 35.22 13.89 35.22 12.49 17.17 22.92"/>
            </g>
            <g>
              <polygon class="cls-17" points="17.23 23.12 11.81 19.68 31.47 8.33 36.89 11.45 17.23 23.12"/>
              <polygon class="cls-15" points="36.89 12.57 17.23 23.92 17.11 23.12 17.23 22.8 36.89 11.45 36.89 12.57"/>
              <polygon class="cls-48" points="17.23 23.92 11.81 20.79 11.81 19.68 17.23 22.8 17.23 23.92"/>
            </g>
          </g>
          <g>
            <g>
              <g>
                <polygon class="cls-45" points="28.97 9.93 29.23 10.31 29.74 10.02 29.74 8.97 29.08 9.15 28.97 9.93"/>
                <polygon class="cls-60" points="28.68 8.59 28.59 8.15 29.1 7.85 29.74 8.97 29.23 9.26 28.68 8.59"/>
                <polygon class="cls-4" points="27.99 7.91 27.68 7.62 28.19 7.33 29.1 7.85 28.59 8.15 27.99 7.91"/>
                <polygon class="cls-11" points="27.68 7.62 27.04 7.99 27.04 9.04 27.68 10.16 28.59 10.68 29.23 10.31 29.23 9.26 28.59 8.15 27.68 7.62"/>
              </g>
              <g>
                <polygon class="cls-45" points="27.24 10.69 27.45 10.99 28.95 10.12 28.95 9.29 27.33 10.07 27.24 10.69"/>
                <polygon class="cls-60" points="27.01 9.63 26.94 9.28 28.44 8.41 28.95 9.29 27.45 10.16 27.01 9.63"/>
                <polygon class="cls-4" points="26.47 9.09 26.22 8.86 27.72 8 28.44 8.41 26.94 9.28 26.47 9.09"/>
                <g class="cls-10">
                  <polygon class="cls-39" points="28.95 9.95 27.45 10.81 27.45 10.9 28.95 10.03 28.95 9.95"/>
                  <polygon class="cls-39" points="28.31 8.34 26.81 9.2 26.88 9.24 28.38 8.38 28.31 8.34"/>
                  <polygon class="cls-39" points="27.82 8.05 26.32 8.92 26.39 8.96 27.89 8.1 27.82 8.05"/>
                  <rect class="cls-39" x="27.02" y="9.15" width="1.73" height=".07" transform="translate(-.86 15.17) rotate(-30)"/>
                  <polygon class="cls-39" points="28.06 8.19 26.56 9.06 26.64 9.1 28.13 8.24 28.06 8.19"/>
                  <rect class="cls-39" x="26.9" y="8.94" width="1.73" height=".07" transform="translate(-.77 15.08) rotate(-30)"/>
                  <polygon class="cls-39" points="28.74 8.94 27.24 9.8 27.28 9.86 28.78 9 28.74 8.94"/>
                  <polygon class="cls-39" points="28.95 9.67 27.45 10.53 27.45 10.62 28.95 9.75 28.95 9.67"/>
                  <polygon class="cls-39" points="28.95 9.38 27.45 10.25 27.45 10.33 28.95 9.47 28.95 9.38"/>
                  <rect class="cls-39" x="27.27" y="9.58" width="1.73" height=".07" transform="translate(-1.04 15.36) rotate(-30)"/>
                </g>
                <polygon class="cls-11" points="26.22 8.86 25.71 9.16 25.71 9.99 26.22 10.87 26.94 11.28 27.45 10.99 27.45 10.16 26.94 9.28 26.22 8.86"/>
              </g>
              <g>
                <g>
                  <polygon class="cls-4" points="27.62 8.76 27.11 8.76 26.27 7.99 27.23 7.44 28.39 8.11 27.62 8.76"/>
                  <polygon class="cls-41" points="27.43 9.51 27.2 9.12 26.49 8.71 26.27 8.84 26.27 7.99 27.43 8.66 27.43 9.51"/>
                  <polygon class="cls-45" points="28.39 8.95 27.43 9.51 27.43 8.66 28.39 8.11 28.39 8.95"/>
                </g>
                <g>
                  <polygon class="cls-41" points="27.08 7.99 26.98 8 26.98 8.13 27.18 8.25 27.22 8.1 27.08 7.99"/>
                  <polygon class="cls-60" points="27.37 8.08 27.47 8.12 27.47 8.25 27.18 8.25 27.18 8.12 27.37 8.08"/>
                  <polygon class="cls-45" points="27.58 8.03 27.67 8 27.67 8.13 27.47 8.25 27.47 8.12 27.58 8.03"/>
                  <polygon class="cls-11" points="27.67 8 27.67 7.83 27.47 7.72 27.18 7.72 26.98 7.83 26.98 8 27.18 8.12 27.47 8.12 27.67 8"/>
                </g>
              </g>
            </g>
            <g>
              <polygon class="cls-54" points="23.99 18.9 29.04 15.98 29.04 10.38 23.99 13.3 23.99 18.9"/>
              <polygon class="cls-22" points="28.32 9.13 29.04 10.38 23.99 13.3 22.79 12.01 26.73 9.65 28.32 9.13"/>
              <polygon class="cls-20" points="19.3 9.75 24.35 6.84 28.32 9.13 23.27 12.04 21.89 12.47 19.3 9.75"/>
              <polygon class="cls-48" points="19.3 9.75 18.58 10.17 18.58 15.77 23.99 18.9 23.99 13.3 23.27 12.04 19.3 9.75"/>
            </g>
            <g>
              <g>
                <polygon class="cls-41" points="24.84 17.24 25.06 17.37 28.57 11.85 24.84 13.75 24.84 17.24"/>
                <polygon class="cls-4" points="25.06 13.88 28.57 11.85 28.35 11.73 24.84 13.75 25.06 13.88"/>
                <polygon class="cls-45" points="25.06 17.37 28.57 15.34 28.57 11.85 25.06 13.88 25.06 17.37"/>
              </g>
              <g>
                <polygon class="cls-56" points="28.41 12.26 28.41 14.95 27.64 15.39 27.64 15.33 28.35 14.92 28.35 12.29 28.41 12.26"/>
                <polygon class="cls-16" points="28.35 12.29 28.35 14.92 27.64 15.33 27.64 12.71 28.35 12.29"/>
                <g>
                  <polygon class="cls-31" points="27.74 12.77 27.74 12.99 28.17 12.74 28.17 12.51 27.74 12.77"/>
                  <polygon class="cls-61" points="27.74 13.42 28.17 13.17 28.17 12.95 27.74 13.2 27.74 13.42"/>
                  <polygon class="cls-12" points="27.74 13.86 28.17 13.6 28.17 13.38 27.74 13.63 27.74 13.86"/>
                  <polygon class="cls-37" points="27.74 14.29 28.17 14.04 28.17 13.82 27.74 14.07 27.74 14.29"/>
                  <polygon class="cls-9" points="27.74 14.72 28.17 14.47 28.17 14.25 27.74 14.5 27.74 14.72"/>
                  <polygon class="cls-56" points="27.74 15.16 28.17 14.91 28.17 14.68 27.74 14.94 27.74 15.16"/>
                </g>
              </g>
              <g>
                <polygon class="cls-41" points="25.45 16.88 25.61 16.98 27.56 12.85 25.45 13.88 25.45 16.88"/>
                <polygon class="cls-4" points="25.61 13.98 27.56 12.85 27.4 12.76 25.45 13.88 25.61 13.98"/>
                <polygon class="cls-45" points="25.61 16.98 27.56 15.85 27.56 12.85 25.61 13.98 25.61 16.98"/>
                <g>
                  <polygon class="cls-56" points="27.35 13.2 27.35 13.93 25.82 14.81 25.82 14.75 27.29 13.9 27.29 13.23 27.35 13.2"/>
                  <polygon class="cls-16" points="27.29 13.23 27.29 13.9 25.82 14.75 25.82 14.08 27.29 13.23"/>
                </g>
                <g>
                  <polygon class="cls-14" points="27.35 14.15 27.35 15.75 25.82 16.63 25.82 16.57 27.29 15.72 27.29 14.18 27.35 14.15"/>
                  <polygon class="cls-39" points="27.29 14.18 27.29 15.72 25.82 16.57 25.82 15.03 27.29 14.18"/>
                </g>
                <g>
                  <g>
                    <polygon class="cls-3" points="26.15 15 26.13 14.99 26.02 15.04 26.05 15.1 26.15 15"/>
                    <polygon class="cls-11" points="26.05 15.06 26.02 15.04 25.95 15.17 25.98 15.3 26.05 15.06"/>
                    <polygon class="cls-51" points="25.98 15.18 25.95 15.17 25.95 15.29 25.98 15.3 25.98 15.18"/>
                    <polygon class="cls-6" points="26.05 15.34 25.98 15.3 25.98 15.18 26.05 15.06 26.15 15 26.22 15.04 26.22 15.16 26.15 15.28 26.05 15.34"/>
                  </g>
                  <g>
                    <polygon class="cls-29" points="26.23 15.09 26.15 15.04 26.07 15.08 26.15 15.17 26.23 15.09"/>
                    <polygon class="cls-44" points="26.15 15.13 26.07 15.08 26.01 15.18 26.09 15.33 26.15 15.13"/>
                    <polygon class="cls-33" points="26.09 15.23 26.01 15.18 26.01 15.28 26.09 15.33 26.09 15.23"/>
                    <polygon class="cls-50" points="26.15 15.36 26.09 15.33 26.09 15.23 26.15 15.13 26.23 15.09 26.29 15.12 26.29 15.21 26.23 15.31 26.15 15.36"/>
                  </g>
                </g>
                <g>
                  <g>
                    <polygon class="cls-3" points="26.63 14.72 26.6 14.71 26.5 14.77 26.53 14.83 26.63 14.72"/>
                    <polygon class="cls-11" points="26.53 14.78 26.5 14.77 26.43 14.89 26.45 15.03 26.53 14.78"/>
                    <polygon class="cls-51" points="26.45 14.91 26.43 14.89 26.43 15.01 26.45 15.03 26.45 14.91"/>
                    <polygon class="cls-6" points="26.53 15.07 26.45 15.03 26.45 14.91 26.53 14.78 26.63 14.72 26.7 14.77 26.7 14.88 26.63 15.01 26.53 15.07"/>
                  </g>
                  <g>
                    <polygon class="cls-55" points="26.71 14.81 26.62 14.76 26.54 14.81 26.63 14.89 26.71 14.81"/>
                    <polygon class="cls-31" points="26.63 14.86 26.54 14.81 26.48 14.91 26.57 15.05 26.63 14.86"/>
                    <polygon class="cls-53" points="26.57 14.96 26.48 14.91 26.48 15 26.57 15.05 26.57 14.96"/>
                    <polygon class="cls-38" points="26.63 15.09 26.57 15.05 26.57 14.96 26.63 14.86 26.71 14.81 26.77 14.85 26.77 14.94 26.71 15.04 26.63 15.09"/>
                  </g>
                </g>
                <g>
                  <g>
                    <polygon class="cls-3" points="27.11 14.45 27.08 14.43 26.98 14.49 27 14.55 27.11 14.45"/>
                    <polygon class="cls-11" points="27 14.51 26.98 14.49 26.91 14.62 26.93 14.75 27 14.51"/>
                    <polygon class="cls-51" points="26.93 14.63 26.91 14.62 26.91 14.74 26.93 14.75 26.93 14.63"/>
                    <polygon class="cls-6" points="27 14.79 26.93 14.75 26.93 14.63 27 14.51 27.11 14.45 27.18 14.49 27.18 14.61 27.11 14.73 27 14.79"/>
                  </g>
                  <g>
                    <polygon class="cls-34" points="27.19 14.54 27.1 14.49 27.02 14.53 27.11 14.62 27.19 14.54"/>
                    <polygon class="cls-42" points="27.11 14.58 27.02 14.53 26.96 14.63 27.05 14.78 27.11 14.58"/>
                    <polygon class="cls-13" points="27.05 14.68 26.96 14.63 26.96 14.73 27.05 14.78 27.05 14.68"/>
                    <polygon class="cls-5" points="27.11 14.81 27.05 14.78 27.05 14.68 27.11 14.58 27.19 14.54 27.25 14.57 27.25 14.66 27.19 14.76 27.11 14.81"/>
                  </g>
                </g>
                <g>
                  <g>
                    <polygon class="cls-3" points="26.15 15.43 26.13 15.42 26.02 15.48 26.05 15.54 26.15 15.43"/>
                    <polygon class="cls-11" points="26.05 15.49 26.02 15.48 25.95 15.6 25.98 15.74 26.05 15.49"/>
                    <polygon class="cls-51" points="25.98 15.62 25.95 15.6 25.95 15.72 25.98 15.74 25.98 15.62"/>
                    <polygon class="cls-6" points="26.05 15.78 25.98 15.74 25.98 15.62 26.05 15.49 26.15 15.43 26.22 15.48 26.22 15.59 26.15 15.72 26.05 15.78"/>
                  </g>
                  <g>
                    <polygon class="cls-29" points="26.23 15.52 26.15 15.47 26.07 15.52 26.15 15.6 26.23 15.52"/>
                    <polygon class="cls-44" points="26.15 15.57 26.07 15.52 26.01 15.62 26.09 15.76 26.15 15.57"/>
                    <polygon class="cls-33" points="26.09 15.67 26.01 15.62 26.01 15.71 26.09 15.76 26.09 15.67"/>
                    <polygon class="cls-50" points="26.15 15.8 26.09 15.76 26.09 15.67 26.15 15.57 26.23 15.52 26.29 15.55 26.29 15.65 26.23 15.75 26.15 15.8"/>
                  </g>
                </g>
                <g>
                  <g>
                    <polygon class="cls-3" points="26.63 15.16 26.6 15.14 26.5 15.2 26.53 15.26 26.63 15.16"/>
                    <polygon class="cls-11" points="26.53 15.22 26.5 15.2 26.43 15.33 26.45 15.46 26.53 15.22"/>
                    <polygon class="cls-51" points="26.45 15.34 26.43 15.33 26.43 15.45 26.45 15.46 26.45 15.34"/>
                    <polygon class="cls-6" points="26.53 15.5 26.45 15.46 26.45 15.34 26.53 15.22 26.63 15.16 26.7 15.2 26.7 15.32 26.63 15.44 26.53 15.5"/>
                  </g>
                  <g>
                    <polygon class="cls-55" points="26.71 15.25 26.62 15.2 26.54 15.24 26.63 15.33 26.71 15.25"/>
                    <polygon class="cls-31" points="26.63 15.29 26.54 15.24 26.48 15.34 26.57 15.49 26.63 15.29"/>
                    <polygon class="cls-53" points="26.57 15.39 26.48 15.34 26.48 15.44 26.57 15.49 26.57 15.39"/>
                    <polygon class="cls-38" points="26.63 15.52 26.57 15.49 26.57 15.39 26.63 15.29 26.71 15.25 26.77 15.28 26.77 15.37 26.71 15.47 26.63 15.52"/>
                  </g>
                </g>
                <g>
                  <g>
                    <polygon class="cls-3" points="27.11 14.88 27.08 14.87 26.98 14.93 27 14.98 27.11 14.88"/>
                    <polygon class="cls-11" points="27 14.94 26.98 14.93 26.91 15.05 26.93 15.19 27 14.94"/>
                    <polygon class="cls-51" points="26.93 15.07 26.91 15.05 26.91 15.17 26.93 15.19 26.93 15.07"/>
                    <polygon class="cls-6" points="27 15.23 26.93 15.19 26.93 15.07 27 14.94 27.11 14.88 27.18 14.92 27.18 15.04 27.11 15.17 27 15.23"/>
                  </g>
                  <g>
                    <polygon class="cls-55" points="27.19 14.97 27.1 14.92 27.02 14.97 27.11 15.05 27.19 14.97"/>
                    <polygon class="cls-31" points="27.11 15.02 27.02 14.97 26.96 15.07 27.05 15.21 27.11 15.02"/>
                    <polygon class="cls-53" points="27.05 15.12 26.96 15.07 26.96 15.16 27.05 15.21 27.05 15.12"/>
                    <polygon class="cls-38" points="27.11 15.25 27.05 15.21 27.05 15.12 27.11 15.02 27.19 14.97 27.25 15 27.25 15.1 27.19 15.2 27.11 15.25"/>
                  </g>
                </g>
                <g>
                  <g>
                    <polygon class="cls-3" points="26.15 15.87 26.13 15.85 26.02 15.91 26.05 15.97 26.15 15.87"/>
                    <polygon class="cls-11" points="26.05 15.93 26.02 15.91 25.95 16.04 25.98 16.17 26.05 15.93"/>
                    <polygon class="cls-51" points="25.98 16.05 25.95 16.04 25.95 16.16 25.98 16.17 25.98 16.05"/>
                    <polygon class="cls-6" points="26.05 16.21 25.98 16.17 25.98 16.05 26.05 15.93 26.15 15.87 26.22 15.91 26.22 16.03 26.15 16.15 26.05 16.21"/>
                  </g>
                  <g>
                    <polygon class="cls-52" points="26.23 15.96 26.15 15.91 26.07 15.95 26.15 16.04 26.23 15.96"/>
                    <polygon class="cls-18" points="26.15 16 26.07 15.95 26.01 16.05 26.09 16.2 26.15 16"/>
                    <polygon class="cls-25" points="26.09 16.1 26.01 16.05 26.01 16.15 26.09 16.2 26.09 16.1"/>
                    <polygon class="cls-7" points="26.15 16.23 26.09 16.2 26.09 16.1 26.15 16 26.23 15.96 26.29 15.99 26.29 16.08 26.23 16.18 26.15 16.23"/>
                  </g>
                </g>
                <g>
                  <g>
                    <polygon class="cls-3" points="26.63 15.59 26.6 15.58 26.5 15.64 26.53 15.69 26.63 15.59"/>
                    <polygon class="cls-11" points="26.53 15.65 26.5 15.64 26.43 15.76 26.45 15.89 26.53 15.65"/>
                    <polygon class="cls-51" points="26.45 15.78 26.43 15.76 26.43 15.88 26.45 15.89 26.45 15.78"/>
                    <polygon class="cls-6" points="26.53 15.94 26.45 15.89 26.45 15.78 26.53 15.65 26.63 15.59 26.7 15.64 26.7 15.75 26.63 15.88 26.53 15.94"/>
                  </g>
                  <g>
                    <polygon class="cls-52" points="26.71 15.68 26.62 15.63 26.54 15.68 26.63 15.76 26.71 15.68"/>
                    <polygon class="cls-18" points="26.63 15.73 26.54 15.68 26.48 15.78 26.57 15.92 26.63 15.73"/>
                    <polygon class="cls-25" points="26.57 15.83 26.48 15.78 26.48 15.87 26.57 15.92 26.57 15.83"/>
                    <polygon class="cls-7" points="26.63 15.96 26.57 15.92 26.57 15.83 26.63 15.73 26.71 15.68 26.77 15.71 26.77 15.81 26.71 15.91 26.63 15.96"/>
                  </g>
                </g>
                <g>
                  <g>
                    <polygon class="cls-3" points="27.11 15.32 27.08 15.3 26.98 15.36 27 15.42 27.11 15.32"/>
                    <polygon class="cls-11" points="27 15.38 26.98 15.36 26.91 15.49 26.93 15.62 27 15.38"/>
                    <polygon class="cls-51" points="26.93 15.5 26.91 15.49 26.91 15.6 26.93 15.62 26.93 15.5"/>
                    <polygon class="cls-6" points="27 15.66 26.93 15.62 26.93 15.5 27 15.38 27.11 15.32 27.18 15.36 27.18 15.48 27.11 15.6 27 15.66"/>
                  </g>
                  <g>
                    <polygon class="cls-55" points="27.19 15.41 27.1 15.36 27.02 15.4 27.11 15.49 27.19 15.41"/>
                    <polygon class="cls-31" points="27.11 15.45 27.02 15.4 26.96 15.5 27.05 15.65 27.11 15.45"/>
                    <polygon class="cls-53" points="27.05 15.55 26.96 15.5 26.96 15.6 27.05 15.65 27.05 15.55"/>
                    <polygon class="cls-38" points="27.11 15.68 27.05 15.65 27.05 15.55 27.11 15.45 27.19 15.41 27.25 15.44 27.25 15.53 27.19 15.63 27.11 15.68"/>
                  </g>
                </g>
              </g>
            </g>
            <g>
              <g>
                <g>
                  <polygon class="cls-45" points="19.78 10.58 19.78 16.85 20.16 17.07 20.16 10.8 20.16 10.58 19.78 10.58"/>
                  <polygon class="cls-41" points="20.16 10.8 20.16 17.07 20.37 16.96 20.37 10.69 20.19 10.72 20.16 10.8"/>
                  <polygon class="cls-4" points="19.78 10.58 19.99 10.46 20.37 10.69 20.16 10.8 19.78 10.58"/>
                </g>
                <g>
                  <polygon class="cls-45" points="20.16 10.8 20.16 11.1 22.67 12.54 22.67 12.25 22.58 12.08 20.16 10.8"/>
                  <polygon class="cls-41" points="22.67 12.25 22.67 12.54 22.87 12.42 22.87 12.13 22.69 12.17 22.67 12.25"/>
                  <polygon class="cls-4" points="20.16 10.8 20.37 10.69 22.87 12.13 22.67 12.25 20.16 10.8"/>
                </g>
                <g>
                  <polygon class="cls-45" points="20.16 16.78 20.16 17.07 22.67 18.52 22.67 18.23 22.58 18.06 20.16 16.78"/>
                  <polygon class="cls-41" points="22.67 18.23 22.67 18.52 22.87 18.4 22.87 18.11 22.69 18.15 22.67 18.23"/>
                  <polygon class="cls-4" points="20.16 16.78 20.37 16.66 22.87 18.11 22.67 18.23 20.16 16.78"/>
                </g>
                <g>
                  <polygon class="cls-45" points="22.67 12.25 22.67 18.52 23.05 18.74 23.05 12.47 23.05 12.25 22.67 12.25"/>
                  <polygon class="cls-41" points="23.05 12.47 23.05 18.74 23.26 18.62 23.26 12.35 23.07 12.39 23.05 12.47"/>
                  <polygon class="cls-4" points="22.67 12.25 22.87 12.13 23.26 12.35 23.05 12.47 22.67 12.25"/>
                </g>
              </g>
              <g>
                <polygon class="cls-58" points="18.39 14.05 18.25 14.27 17.49 13.83 17.49 11.85 18.4 12.2 18.39 14.05"/>
                <polygon class="cls-36" points="18.25 12.29 18.52 12.16 18.61 11.85 17.7 11.49 17.49 11.85 18.25 12.29"/>
                <polygon class="cls-8" points="18.46 11.93 18.91 11.93 19.33 11.43 18.57 10.99 17.7 11.49 18.46 11.93"/>
                <polygon class="cls-62" points="19.33 11.43 19.54 11.55 19.54 13.53 19.33 13.89 18.46 14.39 18.25 14.27 18.25 12.29 18.46 11.93 19.33 11.43"/>
                <polygon class="cls-58" points="19.1 12.54 19.32 12.41 19.32 11.85 19.1 11.98 19.1 12.54"/>
              </g>
              <g>
                <g>
                  <polygon class="cls-45" points="16.33 14.25 16.25 14.41 15.59 14.03 15.59 13.11 16.35 13.44 16.33 14.25"/>
                  <polygon class="cls-60" points="15.59 13.11 16.25 13.49 16.66 13.01 16.88 12.46 16.16 12.13 15.59 13.11"/>
                  <polygon class="cls-4" points="16.16 12.13 16.81 12.51 17.33 12.41 17.61 12.04 16.96 11.67 16.16 12.13"/>
                  <polygon class="cls-41" points="17.61 12.04 18.18 12.37 18.18 13.3 17.61 14.28 16.81 14.74 16.25 14.41 16.25 13.49 16.81 12.51 17.61 12.04"/>
                </g>
                <g>
                  <polygon class="cls-26" points="17.46 12.58 17.8 12.78 17.8 13.34 17.46 13.93 16.97 14.21 16.63 14.01 16.63 13.45 16.97 12.86 17.46 12.58"/>
                  <polygon class="cls-30" points="17 13.22 17.19 12.9 16.94 12.79 16.56 13.46 16.75 13.57 17 13.22"/>
                  <polygon class="cls-58" points="17.39 12.78 17.68 12.59 17.49 12.48 16.94 12.79 17.14 12.9 17.39 12.78"/>
                  <polygon class="cls-48" points="16.8 13.87 16.75 13.57 16.56 13.46 16.56 14.08 16.75 14.2 16.8 13.87"/>
                  <polygon class="cls-17" points="17.14 12.9 17.68 12.59 18.06 12.81 18.06 13.44 17.68 14.1 17.14 14.42 16.75 14.2 16.75 13.57 17.14 12.9"/>
                  <g>
                    <polygon class="cls-48" points="17.13 14.21 17.19 14.24 17.63 13.99 17.94 13.45 17.94 12.95 17.88 12.91 17.13 14.21"/>
                    <polygon class="cls-30" points="16.88 13.56 16.88 14.06 17.13 14.21 17.57 13.95 17.88 13.42 17.88 12.91 17.63 12.77 17.19 13.02 16.88 13.56"/>
                  </g>
                </g>
                <g>
                  <polygon class="cls-51" points="15.45 12.9 16 13.22 16.21 13.06 16.43 12.63 16.46 12.43 15.91 12.11 15.45 12.9"/>
                  <polygon class="cls-21" points="15.8 12.4 15.95 12.48 16.07 12.27 15.92 12.18 15.8 12.4"/>
                  <polygon class="cls-3" points="16 13.22 16.25 13.37 16.71 12.57 16.46 12.43 16 13.22"/>
                </g>
              </g>
              <g>
                <polygon class="cls-48" points="18.35 14.35 18.35 14.54 18.35 20.51 15.9 19.09 15.9 13.13 18.35 14.35"/>
                <polygon class="cls-46" points="17.32 16.11 18.05 16.53 18.05 15.09 17.32 14.67 17.32 16.11"/>
                <polygon class="cls-46" points="16.76 18.76 18.05 19.5 18.05 16.98 16.76 16.24 16.76 18.76"/>
                <polygon class="cls-46" points="18.35 14.54 18.35 20.51 22.15 18.32 22.15 12.35 18.48 14.36 18.35 14.54"/>
                <polygon class="cls-58" points="15.9 13.13 19.7 10.94 22.15 12.35 18.35 14.54 15.9 13.13"/>
                <g>
                  <polygon class="cls-30" points="19.69 11.08 21.9 12.36 21.67 12.49 19.45 11.21 19.69 11.08"/>
                  <polygon class="cls-30" points="19.03 11.46 21.24 12.74 21.01 12.87 18.79 11.6 19.03 11.46"/>
                  <polygon class="cls-30" points="18.37 11.84 20.59 13.12 20.35 13.25 18.13 11.98 18.37 11.84"/>
                  <polygon class="cls-30" points="17.71 12.22 19.93 13.5 19.69 13.64 17.47 12.36 17.71 12.22"/>
                  <polygon class="cls-30" points="17.05 12.6 19.27 13.88 19.03 14.02 16.81 12.74 17.05 12.6"/>
                  <polygon class="cls-30" points="16.39 12.98 18.61 14.26 18.37 14.4 16.15 13.12 16.39 12.98"/>
                </g>
              </g>
              <g>
                <g>
                  <g>
                    <polygon class="cls-36" points="21.77 15.21 22.35 15.54 22.34 15.58 22.16 15.68 21.59 15.31 21.77 15.21"/>
                    <polygon class="cls-30" points="21.46 15.54 22.04 15.89 22.16 15.69 22.17 15.64 21.59 15.31 21.46 15.54"/>
                    <polygon class="cls-46" points="21.46 15.75 22.04 16.08 22.08 15.98 22.04 15.87 21.46 15.54 21.46 15.75"/>
                    <polygon class="cls-17" points="22.35 15.54 22.48 15.61 22.48 15.82 22.35 16.05 22.17 16.15 22.04 16.08 22.04 15.87 22.17 15.64 22.35 15.54"/>
                    <g>
                      <polygon class="cls-46" points="22.11 16 22.11 16.01 22.2 16.06 22.32 15.99 22.41 15.83 22.41 15.69 22.32 15.63 22.32 15.64 22.26 15.75 22.17 15.9 22.11 16"/>
                      <polygon class="cls-30" points="22.11 15.86 22.11 16 22.23 15.93 22.32 15.78 22.32 15.64 22.2 15.71 22.11 15.86"/>
                    </g>
                  </g>
                  <g>
                    <polygon class="cls-36" points="21.77 14.54 22.35 14.87 22.34 14.92 22.16 15.01 21.59 14.64 21.77 14.54"/>
                    <polygon class="cls-30" points="21.46 14.87 22.04 15.22 22.16 15.02 22.17 14.97 21.59 14.64 21.46 14.87"/>
                    <polygon class="cls-46" points="21.46 15.08 22.04 15.41 22.08 15.31 22.04 15.2 21.46 14.87 21.46 15.08"/>
                    <polygon class="cls-17" points="22.35 14.87 22.48 14.94 22.48 15.15 22.35 15.38 22.17 15.49 22.04 15.41 22.04 15.2 22.17 14.97 22.35 14.87"/>
                    <g>
                      <polygon class="cls-46" points="22.11 15.33 22.11 15.34 22.2 15.39 22.32 15.32 22.41 15.16 22.41 15.02 22.32 14.96 22.32 14.97 22.26 15.08 22.17 15.23 22.11 15.33"/>
                      <polygon class="cls-30" points="22.11 15.19 22.11 15.33 22.23 15.26 22.32 15.11 22.32 14.97 22.2 15.04 22.11 15.19"/>
                    </g>
                  </g>
                </g>
                <g>
                  <polygon class="cls-48" points="22.28 14.88 22.31 13.63 21.39 13.14 21.39 14.37 22.28 14.88"/>
                  <g>
                    <polygon class="cls-59" points="21.87 14.13 22.21 14.32 22.21 14.3 21.87 14.1 21.87 14.13"/>
                    <polygon class="cls-59" points="21.87 14.2 22.21 14.4 22.21 14.37 21.87 14.17 21.87 14.2"/>
                    <polygon class="cls-59" points="21.87 14.27 22.21 14.47 22.21 14.44 21.87 14.24 21.87 14.27"/>
                    <polygon class="cls-59" points="21.87 14.34 22.21 14.54 22.21 14.51 21.87 14.32 21.87 14.34"/>
                    <polygon class="cls-59" points="21.87 14.41 22.21 14.61 22.21 14.58 21.87 14.39 21.87 14.41"/>
                    <polygon class="cls-59" points="21.87 14.49 22.21 14.68 22.21 14.66 21.87 14.46 21.87 14.49"/>
                  </g>
                  <polygon class="cls-17" points="22.28 14.88 22.93 14.51 22.93 13.27 22.47 13.45 22.28 13.65 22.28 14.88"/>
                  <polygon class="cls-48" points="22.54 14.48 22.69 14.4 22.69 14.23 22.54 14.31 22.54 14.48"/>
                  <polygon class="cls-48" points="22.54 14.26 22.69 14.17 22.69 14 22.54 14.08 22.54 14.26"/>
                  <polygon class="cls-48" points="22.51 13.97 22.84 13.78 22.84 13.39 22.51 13.58 22.51 13.97"/>
                  <polygon class="cls-36" points="22.28 13.65 22.93 13.27 22.05 12.76 21.39 13.14 22.28 13.65"/>
                </g>
                <g>
                  <g>
                    <polygon class="cls-45" points="20.52 18.85 20.44 19.01 19.78 18.63 19.78 17.7 20.55 18.03 20.52 18.85"/>
                    <polygon class="cls-60" points="19.78 17.7 20.44 18.08 20.85 17.61 21.08 17.06 20.35 16.72 19.78 17.7"/>
                    <polygon class="cls-4" points="20.35 16.72 21 17.1 21.52 17.01 21.81 16.64 21.15 16.26 20.35 16.72"/>
                    <polygon class="cls-41" points="21.81 16.64 22.37 16.97 22.37 17.89 21.81 18.87 21 19.33 20.44 19.01 20.44 18.08 21 17.1 21.81 16.64"/>
                  </g>
                  <g>
                    <polygon class="cls-26" points="21.65 17.18 21.99 17.37 21.99 17.93 21.65 18.52 21.17 18.8 20.82 18.6 20.82 18.05 21.17 17.46 21.65 17.18"/>
                    <polygon class="cls-30" points="21.2 17.81 21.38 17.5 21.13 17.39 20.75 18.05 20.95 18.16 21.2 17.81"/>
                    <polygon class="cls-58" points="21.59 17.38 21.87 17.19 21.68 17.07 21.13 17.39 21.33 17.5 21.59 17.38"/>
                    <polygon class="cls-48" points="20.99 18.46 20.95 18.16 20.75 18.05 20.75 18.68 20.95 18.79 20.99 18.46"/>
                    <polygon class="cls-17" points="21.33 17.5 21.87 17.19 22.26 17.41 22.26 18.03 21.87 18.7 21.33 19.01 20.95 18.79 20.95 18.16 21.33 17.5"/>
                    <g>
                      <polygon class="cls-48" points="21.32 18.8 21.38 18.83 21.82 18.58 22.13 18.05 22.13 17.54 22.07 17.51 21.32 18.8"/>
                      <polygon class="cls-30" points="21.07 18.15 21.07 18.66 21.32 18.8 21.76 18.55 22.07 18.01 22.07 17.51 21.82 17.36 21.38 17.61 21.07 18.15"/>
                    </g>
                  </g>
                  <g>
                    <polygon class="cls-51" points="19.64 17.5 20.19 17.82 20.4 17.65 20.62 17.22 20.65 17.02 20.1 16.7 19.64 17.5"/>
                    <rect class="cls-21" x="20.01" y="16.84" width=".24" height=".17" transform="translate(-4.6 25.89) rotate(-59.98)"/>
                    <polygon class="cls-3" points="20.19 17.82 20.44 17.96 20.9 17.17 20.65 17.02 20.19 17.82"/>
                  </g>
                </g>
                <g>
                  <polygon class="cls-58" points="20.7 16.49 20.56 16.72 19.8 16.28 19.8 14.3 20.71 14.65 20.7 16.49"/>
                  <polygon class="cls-36" points="20.56 14.74 20.82 14.6 20.91 14.29 20.01 13.94 19.8 14.3 20.56 14.74"/>
                  <polygon class="cls-8" points="20.77 14.38 21.22 14.38 21.64 13.87 20.88 13.44 20.01 13.94 20.77 14.38"/>
                  <polygon class="cls-62" points="21.64 13.87 21.85 13.99 21.85 15.98 21.64 16.34 20.77 16.84 20.56 16.72 20.56 14.74 20.77 14.38 21.64 13.87"/>
                  <polygon class="cls-58" points="21.41 14.99 21.63 14.86 21.63 14.3 21.41 14.43 21.41 14.99"/>
                </g>
                <g>
                  <polygon class="cls-43" points="19.21 16.91 19.13 17.05 18.64 16.77 18.64 15.31 19.22 15.54 19.21 16.91"/>
                  <polygon class="cls-15" points="19.13 15.59 19.29 15.51 19.35 15.31 18.77 15.08 18.64 15.31 19.13 15.59"/>
                  <polygon class="cls-30" points="19.26 15.36 19.54 15.36 19.81 15.04 19.33 14.76 18.77 15.08 19.26 15.36"/>
                  <polygon class="cls-48" points="19.81 15.04 19.94 15.12 19.94 16.58 19.81 16.81 19.26 17.13 19.13 17.05 19.13 15.59 19.26 15.36 19.81 15.04"/>
                  <polygon class="cls-43" points="19.66 16.66 19.8 16.58 19.8 15.27 19.66 15.35 19.66 16.66"/>
                </g>
                <g>
                  <polygon class="cls-30" points="19.31 18.53 19.5 18.64 19.48 18.72 19.15 18.91 18.97 18.73 19.31 18.53"/>
                  <polygon class="cls-15" points="18.72 19.15 18.93 19.3 19.14 18.93 19.16 18.84 18.97 18.73 18.72 19.15"/>
                  <polygon class="cls-43" points="18.72 19.54 18.91 19.66 19 19.46 18.91 19.26 18.72 19.15 18.72 19.54"/>
                  <polygon class="cls-48" points="19.5 18.64 19.74 18.78 19.74 19.18 19.5 19.6 19.16 19.79 18.91 19.66 18.91 19.26 19.16 18.84 19.5 18.64"/>
                  <g>
                    <polygon class="cls-43" points="19.04 19.51 19.04 19.52 19.21 19.62 19.45 19.48 19.62 19.19 19.62 18.91 19.45 18.82 19.44 18.82 19.33 19.04 19.16 19.31 19.04 19.51"/>
                    <polygon class="cls-59" points="19.04 19.24 19.04 19.51 19.28 19.38 19.44 19.09 19.44 18.82 19.21 18.95 19.04 19.24"/>
                  </g>
                </g>
              </g>
              <g>
                <g>
                  <polygon class="cls-45" points="15.63 12.98 15.63 19.25 16.01 19.47 16.01 13.2 16.01 12.98 15.63 12.98"/>
                  <polygon class="cls-41" points="16.01 13.2 16.01 19.47 16.22 19.35 16.22 13.08 16.04 13.12 16.01 13.2"/>
                  <polygon class="cls-4" points="15.63 12.98 15.83 12.86 16.22 13.08 16.01 13.2 15.63 12.98"/>
                </g>
                <g>
                  <polygon class="cls-45" points="16.01 13.2 16.01 13.49 18.52 14.94 18.52 14.64 18.43 14.47 16.01 13.2"/>
                  <polygon class="cls-41" points="18.52 14.64 18.52 14.94 18.72 14.82 18.72 14.53 18.54 14.56 18.52 14.64"/>
                  <polygon class="cls-4" points="16.01 13.2 16.22 13.08 18.72 14.53 18.52 14.64 16.01 13.2"/>
                </g>
                <g>
                  <polygon class="cls-45" points="16.01 19.18 16.01 19.47 18.52 20.92 18.52 20.62 18.43 20.45 16.01 19.18"/>
                  <polygon class="cls-41" points="18.52 20.62 18.52 20.92 18.72 20.8 18.72 20.51 18.54 20.54 18.52 20.62"/>
                  <polygon class="cls-4" points="16.01 19.18 16.22 19.06 18.72 20.51 18.52 20.62 16.01 19.18"/>
                </g>
                <g>
                  <polygon class="cls-45" points="18.52 14.65 18.52 20.92 18.9 21.14 18.9 14.87 18.9 14.65 18.52 14.65"/>
                  <polygon class="cls-41" points="18.9 14.87 18.9 21.14 19.11 21.02 19.11 14.75 18.92 14.78 18.9 14.87"/>
                  <polygon class="cls-4" points="18.52 14.65 18.72 14.53 19.11 14.75 18.9 14.87 18.52 14.65"/>
                </g>
              </g>
            </g>
            <g>
              <polygon class="cls-54" points="17.23 22.8 19.96 21.22 19.96 15.62 17.23 17.2 17.23 22.8"/>
              <polygon class="cls-22" points="19.24 14.37 19.96 15.62 17.23 17.2 16.02 15.91 17.66 14.89 19.24 14.37"/>
              <polygon class="cls-20" points="12.54 13.66 15.27 12.08 19.24 14.37 16.51 15.95 15.12 16.38 12.54 13.66"/>
              <polygon class="cls-23" points="12.54 13.66 11.81 14.08 11.81 19.68 17.23 22.8 17.23 17.2 16.51 15.95 12.54 13.66"/>
            </g>
          </g>
          <g>
            <g>
              <polygon class="cls-15" points="34.67 11.29 35.53 10.8 35.53 4.82 34.67 5.31 34.67 11.29"/>
              <polygon class="cls-46" points="35.14 4.15 35.53 4.82 34.67 5.31 34.02 4.62 34.9 4.08 35.14 4.15"/>
              <polygon class="cls-30" points="32.16 3.42 33.02 2.93 35.14 4.15 34.28 4.64 33.54 4.87 32.16 3.42"/>
              <polygon class="cls-48" points="32.16 3.42 31.77 3.64 31.77 9.62 34.67 11.29 34.67 5.31 34.28 4.64 32.16 3.42"/>
            </g>
            <g>
              <g>
                <polygon class="cls-45" points="33.41 7.73 33.51 7.92 34.29 7.47 34.29 6.38 33.39 6.77 33.41 7.73"/>
                <polygon class="cls-60" points="34.29 6.38 33.51 6.83 33.02 6.27 32.76 5.62 33.62 5.22 34.29 6.38"/>
                <polygon class="cls-4" points="33.62 5.22 32.84 5.67 32.23 5.55 31.9 5.12 32.67 4.67 33.62 5.22"/>
                <polygon class="cls-41" points="31.9 5.12 31.23 5.51 31.23 6.6 31.9 7.76 32.84 8.31 33.51 7.92 33.51 6.83 32.84 5.67 31.9 5.12"/>
              </g>
              <g>
                <g>
                  <polygon class="cls-26" points="32.08 5.76 31.68 5.99 31.68 6.65 32.08 7.35 32.65 7.68 33.06 7.44 33.06 6.79 32.65 6.09 32.08 5.76"/>
                  <g class="cls-10">
                    <polygon class="cls-48" points="32.42 6.26 32.11 6.55 31.75 6.65 31.68 6.33 31.75 6.01 32.13 5.78 32.42 6.26"/>
                    <polygon class="cls-30" points="32.79 6.89 32.44 7.15 32.11 7.29 31.85 7.02 31.75 6.65 32.42 6.26 32.79 6.89"/>
                    <polygon class="cls-58" points="32.86 7.54 32.63 7.58 32.32 7.48 32.11 7.29 32.79 6.89 32.86 7.54"/>
                  </g>
                  <polygon class="cls-30" points="32.62 6.51 32.4 6.14 32.69 6.01 33.14 6.79 32.91 6.92 32.62 6.51"/>
                  <polygon class="cls-58" points="32.16 6 31.82 5.77 32.05 5.64 32.69 6.01 32.46 6.14 32.16 6"/>
                  <polygon class="cls-48" points="32.86 7.27 32.91 6.92 33.14 6.79 33.14 7.53 32.91 7.66 32.86 7.27"/>
                  <polygon class="cls-58" points="32.22 7.65 31.85 7.42 32.11 7.29 32.63 7.58 32.61 7.69 32.4 7.72 32.22 7.65"/>
                  <polygon class="cls-30" points="31.67 7.16 31.46 6.79 31.75 6.65 32.11 7.29 31.88 7.42 31.67 7.16"/>
                  <polygon class="cls-48" points="31.46 6.39 31.51 6.14 31.75 6.01 31.75 6.65 31.51 6.79 31.46 6.39"/>
                  <path class="cls-17" d="M32.46,6.14l-.64-.37-.45,.26v.74l.45,.79,.64,.37,.45-.26v-.74l-.45-.79Zm.3,1.37l-.37,.21-.52-.3-.37-.63v-.6l.37-.21,.52,.3,.03,.05,.02,.13,.2,.34,.09,.05,.03,.05v.6Z"/>
                </g>
                <g>
                  <polygon class="cls-48" points="32.32 6.99 32.35 7.07 32.73 6.85 32.64 6.7 32.32 6.85 32.32 6.99"/>
                  <polygon class="cls-30" points="32.25 6.75 32.19 6.64 32.52 6.48 32.64 6.7 32.35 6.87 32.25 6.75"/>
                  <polygon class="cls-58" points="32.11 6.61 32.05 6.55 32.43 6.33 32.52 6.48 32.23 6.65 32.11 6.61"/>
                  <polygon class="cls-17" points="32.05 6.55 31.92 6.62 31.92 6.83 32.05 7.04 32.23 7.15 32.35 7.07 32.35 6.87 32.23 6.65 32.05 6.55"/>
                </g>
              </g>
            </g>
          </g>
        </g>
        <g>
          <polygon class="cls-35" points="24.08 24.81 24.86 24.36 25.96 24.36 26.74 24.81 26.74 25.45 25.96 25.9 24.86 25.9 24.08 25.45 24.08 24.81"/>
          <polygon class="cls-51" points="23.21 14.25 23.12 14.38 23.18 14.53 23.37 14.63 23.51 14.61 23.62 14.36 23.41 14.19 23.21 14.25"/>
          <g>
            <g>
              <polygon class="cls-4" points="22.79 14.44 23.33 14.4 23.36 14.41 23.37 14.4 23.35 14.37 22.78 14.42 22.69 14.41 22.63 14.43 22.62 14.44 22.73 14.46 22.79 14.44"/>
              <polygon class="cls-45" points="22.79 14.45 23.36 14.41 23.35 14.39 22.77 14.43 22.68 14.42 22.62 14.44 22.64 14.46 22.72 14.48 22.79 14.45"/>
            </g>
            <g>
              <g>
                <polygon class="cls-14" points="23.38 14.3 23.41 14.35 23.42 14.42 23.39 14.48 23.35 14.48 23.31 14.43 23.31 14.36 23.33 14.3 23.38 14.3"/>
                <polygon class="cls-19" points="23.28 14.36 23.28 14.43 23.31 14.43 23.31 14.36 23.28 14.36"/>
                <polygon class="cls-39" points="23.3 14.3 23.28 14.36 23.31 14.36 23.33 14.3 23.3 14.3"/>
                <polygon class="cls-26" points="23.32 14.48 23.28 14.43 23.31 14.43 23.35 14.48 23.32 14.48"/>
              </g>
              <polygon class="cls-19" points="23.32 14.36 23.32 14.42 23.59 14.42 23.83 14.38 23.84 14.35 23.83 14.32 23.56 14.33 23.32 14.36"/>
              <polygon class="cls-39" points="23.34 14.32 23.32 14.36 23.83 14.32 23.85 14.31 23.85 14.28 23.34 14.32"/>
              <polygon class="cls-26" points="23.35 14.46 23.32 14.42 23.83 14.38 23.85 14.4 23.86 14.42 23.35 14.46"/>
              <polygon class="cls-26" points="23.96 14.38 23.89 14.42 23.86 14.42 23.86 14.41 23.94 14.36 23.96 14.38"/>
              <polygon points="23.94 14.38 23.86 14.42 23.83 14.38 23.84 14.37 23.94 14.35 23.94 14.37 23.94 14.38"/>
              <polygon class="cls-26" points="23.93 14.36 23.83 14.38 23.83 14.32 23.85 14.32 23.94 14.33 23.94 14.35 23.93 14.36"/>
              <polygon class="cls-26" points="23.95 14.31 23.88 14.28 23.85 14.28 23.85 14.29 23.94 14.33 23.95 14.31"/>
              <polygon class="cls-19" points="23.94 14.32 23.85 14.28 23.83 14.32 23.93 14.33 23.94 14.33 23.94 14.32"/>
              <polygon class="cls-14" points="23.95 14.31 23.96 14.33 23.97 14.36 23.96 14.38 23.94 14.38 23.93 14.36 23.93 14.33 23.94 14.32 23.95 14.31"/>
            </g>
          </g>
          <polygon class="cls-27" points="24.71 14.95 24.01 14.58 23.79 14.58 23.77 14.66 23.81 14.8 25.09 16.07 25.43 15.96 25.32 15.29 24.71 14.95"/>
          <polygon class="cls-3" points="23.52 14.45 23.37 14.43 23.23 14.35 23.19 14.4 23.22 14.45 23.29 14.54 23.52 14.67 23.81 14.8 23.85 14.65 24.01 14.58 23.87 14.42 23.52 14.45"/>
          <polygon class="cls-3" points="23.74 14.29 23.46 14.13 23.21 14.17 23.09 14.39 23.18 14.39 23.26 14.26 23.38 14.25 23.42 14.31 23.74 14.29"/>
          <polygon class="cls-11" points="26.87 16.27 26.79 15.81 26.53 15.59 25.59 15.64 25.4 16.12 25.67 16.54 26.63 16.67 26.87 16.27"/>
          <polygon class="cls-2" points="25.9 15.34 25.94 15.54 26.06 15.7 25.96 16.07 25.33 16.2 25.11 16.16 25.08 15.98 25.05 15.6 25.03 15.51 25.01 15.28 25.11 15.08 25.58 15.08 25.9 15.34"/>
          <polygon class="cls-3" points="24.19 16.7 24.84 16.23 25.08 15.98 25.18 16.04 25.84 15.94 26.06 15.7 26.19 15.7 26.47 15.79 26.69 16.36 26.6 17 26.21 17.87 26.18 18.36 24.38 18.71 24.17 17.26 24.19 16.7"/>
          <polygon class="cls-39" points="26.51 25.02 26.51 25.07 26.47 25.26 26.26 25.32 26.08 25.22 25.95 25 25.72 24.85 25.72 24.81 26.51 25.02"/>
          <polygon class="cls-39" points="25.6 25.39 24.62 25.23 24.33 25.11 24.33 25.16 24.37 25.41 24.65 25.57 25.18 25.57 25.46 25.69 25.82 25.69 25.83 25.65 25.6 25.39"/>
          <polygon class="cls-3" points="26.44 24.64 26.51 25.02 26.47 25.22 26.26 25.27 26.08 25.18 25.95 24.95 25.72 24.81 25.78 24.49 26.44 24.64"/>
          <polygon class="cls-49" points="26.51 19.68 26.51 22.05 26.67 22.82 26.58 24.64 26.15 24.81 25.74 24.58 25.74 22.49 25.56 21.99 25.56 19.82 26.51 19.68"/>
          <polygon class="cls-3" points="25.1 24.89 24.76 24.97 24.42 24.97 24.33 25.11 24.37 25.37 24.65 25.52 25.18 25.52 25.46 25.65 25.83 25.65 25.83 25.24 25.77 24.99 25.1 24.89"/>
          <polygon class="cls-40" points="26.37 16.91 25.88 17.35 25.36 17.49 25.02 18.23 24.54 18.29 24.21 17.3 24.15 16.7 24.15 17.41 24.23 19.29 24.34 20.97 24.6 22.32 24.8 22.83 25.02 24.6 24.96 24.91 25.3 25.23 25.84 25.07 25.83 23.15 25.63 22.7 25.67 20.36 26.27 20.07 26.51 19.68 26.44 19.03 26.23 18.21 26.09 17.86 26.37 16.91"/>
          <polygon class="cls-2" points="24.73 14.32 24.66 14.52 24.64 14.71 24.68 14.78 24.65 14.84 24.7 15.38 24.84 15.51 25.03 15.51 25.06 15.37 25.18 15.25 25.3 15.04 25.21 14.34 24.73 14.32"/>
          <polygon class="cls-24" points="25.83 14.05 25.3 13.91 24.83 14.04 24.64 14.28 24.73 14.26 24.6 14.42 24.74 14.35 24.78 14.43 24.76 14.56 24.82 14.75 24.89 14.88 24.88 15.06 24.93 15.07 24.99 14.95 25.13 15.02 25.18 15.25 25.36 15.48 25.65 15.54 25.84 15.42 26.02 15.17 26.1 14.7 26.03 14.31 25.9 14.22 25.83 14.05"/>
          <polygon class="cls-40" points="25.36 17.49 25.39 17.02 25.08 16.38 24.77 16.28 24.82 16.17 24.95 16.11 25.22 16.16 25.62 16.92 25.62 17.49 25.49 17.57 25.36 17.49"/>
          <polygon class="cls-40" points="26.09 17.16 26.28 16.45 26.27 15.95 26.06 15.7 26.14 15.68 26.29 15.75 26.46 15.98 26.54 16.4 26.37 16.91 26.21 17.21 26.09 17.16"/>
          <polygon class="cls-3" points="22.62 15.47 22.48 14.84 22.35 14.58 22.07 14.48 22 14.51 22 14.6 21.83 14.85 21.83 15.11 22.15 15.61 22.22 15.68 22.62 15.47"/>
          <polygon class="cls-2" points="23.79 16.68 22.98 16.79 22.95 16.48 22.62 15.47 22.33 15.45 22.22 15.68 22.29 16.7 22.44 17.18 22.76 17.48 23.92 17.51 23.97 17.06 23.79 16.68"/>
          <polygon class="cls-11" points="24.92 17.38 25.04 16.78 24.69 16.45 24.18 16.55 23.69 16.67 23.57 17.17 23.88 17.55 24.34 17.52 24.92 17.38"/>
        </g>
      </g>
    </g>
  </g>
</svg>