<?xml version="1.0" encoding="UTF-8"?>
<svg id="_Слой_2" data-name="Слой 2" xmlns="http://www.w3.org/2000/svg" viewBox="0 0 48.69 30.78">
  <defs>
    <style>
      .cls-1 {
        fill: #73556f;
      }

      .cls-2 {
        fill: #17435c;
      }

      .cls-3 {
        fill: #fff;
      }

      .cls-4 {
        fill: #e6e1dd;
      }

      .cls-5 {
        fill: #d1d1d1;
      }

      .cls-6 {
        fill: #a7a9ac;
      }

      .cls-7 {
        fill: #a483a0;
      }

      .cls-8 {
        fill: #d8d8d8;
      }

      .cls-9 {
        fill: #939598;
      }

      .cls-10 {
        fill: #f4efe9;
      }

      .cls-11 {
        fill: #574943;
      }

      .cls-12 {
        fill: #ffc654;
      }

      .cls-13 {
        fill: #544540;
      }

      .cls-14 {
        fill: #dedede;
      }

      .cls-15 {
        fill: #836e69;
      }

      .cls-16 {
        fill: #e3bd5e;
      }

      .cls-17 {
        fill: #2d5a78;
      }

      .cls-18 {
        fill: #e8f3ff;
      }

      .cls-19 {
        opacity: .3;
      }

      .cls-20 {
        fill: #cc934c;
      }

      .cls-21 {
        fill: #428aa8;
      }

      .cls-22 {
        fill: #d8d1c7;
      }

      .cls-23 {
        fill: #e5e5e5;
      }

      .cls-24 {
        fill: #a39c95;
      }

      .cls-25 {
        fill: #808285;
      }

      .cls-26 {
        fill: #ebebeb;
      }

      .cls-27 {
        fill: #377691;
      }

      .cls-28 {
        fill: #e0dedc;
      }

      .cls-29 {
        fill: #d6a950;
      }

      .cls-30 {
        fill: #fbe979;
      }

      .cls-31 {
        fill: #d1d3d4;
      }

      .cls-32 {
        fill: #e6e7e8;
      }

      .cls-33 {
        fill: #bcbec0;
      }

      .cls-34 {
        fill: #403531;
      }

      .cls-35 {
        fill: #f8f8f8;
      }

      .cls-36 {
        fill: #685750;
      }

      .cls-37 {
        fill: #f2f2f2;
      }

      .cls-38 {
        fill: #b5afa7;
      }

      .cls-39 {
        fill: #65c6e5;
      }
    </style>
  </defs>
  <g id="_Слой_1-2" data-name="Слой 1">
    <path class="cls-18" d="M45.02,0c2.02,0,3.66,1.65,3.66,3.66V27.12c0,2.02-1.65,3.66-3.66,3.66H17.48l-13.81-1.02c-2.02,0-3.66-1.65-3.66-3.66L.53,5.28C.53,3.26,2.18,1.62,4.19,1.62L17.48,0h27.55Z"/>
    <g>
      <g>
        <g>
          <g>
            <polygon class="cls-19" points="35.77 23.15 34.71 22.53 33.22 22.53 32.16 23.15 32.16 24.01 33.22 24.62 34.71 24.62 35.77 24.01 35.77 23.15"/>
            <g>
              <polygon class="cls-27" points="35.62 23.38 32.3 23.38 33.28 24.46 34.65 24.46 35.62 23.38"/>
              <polygon class="cls-17" points="35.62 23.38 34.65 23.94 34.65 24.46 35.62 23.9 35.62 23.38"/>
              <polygon class="cls-21" points="32.3 23.38 33.28 23.94 33.28 24.46 32.3 23.9 32.3 23.38"/>
              <polygon class="cls-19" points="34.65 23.97 33.28 23.97 32.3 23.41 32.3 23.67 33.28 24.23 34.65 24.23 35.62 23.67 35.62 23.41 34.65 23.97"/>
            </g>
            <polygon class="cls-17" points="35.74 17.34 34.36 17.76 34.7 24.13 35.74 23.53 35.74 17.34"/>
            <polygon class="cls-21" points="34.7 15.89 33.23 15.89 32.19 16.49 32.19 17.34 33.23 17.94 34.7 17.94 35.74 17.34 35.74 16.49 34.7 15.89"/>
            <polygon class="cls-39" points="34.83 15.77 34.32 15.48 33.6 15.48 33.09 15.77 33.09 16.18 33.6 16.48 34.32 16.48 34.83 16.18 34.83 15.77"/>
            <polygon class="cls-27" points="33.23 17.94 32.68 22.33 33.23 24.13 34.7 24.13 34.7 17.94 33.23 17.94"/>
            <polygon class="cls-21" points="34.7 17.94 34.32 16.48 33.6 16.48 33.23 17.94 34.7 17.94"/>
            <polygon class="cls-27" points="35.74 17.34 34.83 16.18 34.32 16.48 34.7 17.94 35.74 17.34"/>
            <polygon class="cls-17" points="35.74 16.49 34.83 15.77 34.83 16.18 35.74 17.34 35.74 16.49"/>
            <polygon class="cls-21" points="32.19 16.49 33.09 15.77 33.09 16.18 32.19 17.34 32.19 16.49"/>
            <polygon class="cls-39" points="33.23 17.94 33.6 16.48 33.09 16.18 32.19 17.34 33.23 17.94"/>
            <polygon class="cls-21" points="33.23 17.94 32.19 17.34 32.19 18.99 32.68 20.69 32.19 21.49 32.19 23.53 33.23 24.13 33.23 17.94"/>
            <g>
              <g>
                <polygon class="cls-10" points="32.19 18.99 33.23 19.59 33.37 20.12 33.23 22.09 32.19 21.49 32.19 20.91 32.45 20.86 32.19 20.47 32.19 18.99"/>
                <g>
                  <polygon class="cls-7" points="32.77 20.12 32.35 19.88 32.35 19.52 32.25 19.46 32.25 20.3 32.35 20.36 32.35 20 32.77 20.24 32.77 20.6 32.87 20.66 32.87 19.81 32.77 19.76 32.77 20.12"/>
                  <polygon class="cls-7" points="32.98 20.68 32.98 20.6 33 20.59 33.12 20.65 33.16 20.63 33.16 20.53 33.12 20.45 32.98 20.37 32.94 20.4 32.97 20.45 33 20.43 33.1 20.49 33.12 20.52 33.12 20.59 33.1 20.6 32.98 20.53 32.94 20.55 32.94 20.7 33.16 20.83 33.16 20.78 32.98 20.68"/>
                </g>
                <polygon class="cls-28" points="34.7 19.59 34.7 21.07 34.49 21.34 34.7 21.51 34.7 22.09 33.23 22.09 33.23 19.59 34.7 19.59"/>
              </g>
              <g>
                <polygon class="cls-7" points="32.19 20.47 33.23 21.07 33.43 21.37 33.23 21.51 32.19 20.91 32.19 20.47"/>
                <rect class="cls-1" x="33.23" y="21.07" width="1.47" height=".44"/>
              </g>
            </g>
          </g>
          <g>
            <polygon class="cls-17" points="34.75 15.98 34.14 16.17 34.29 16.43 34.75 16.16 34.75 15.98"/>
            <polygon class="cls-39" points="34.29 15.34 33.64 15.34 33.18 15.61 33.18 15.98 33.64 16.25 34.29 16.25 34.75 15.98 34.75 15.61 34.29 15.34"/>
            <polygon class="cls-27" points="33.64 16.25 33.41 16.19 33.64 16.43 34.29 16.43 34.29 16.25 33.64 16.25"/>
            <polygon class="cls-21" points="33.64 16.25 33.18 15.98 33.18 16.16 33.64 16.43 33.64 16.25"/>
          </g>
          <g>
            <polygon class="cls-17" points="34.52 15.19 34.09 15.33 34.19 16.12 34.52 15.93 34.52 15.19"/>
            <polygon class="cls-39" points="34.19 14.74 33.73 14.74 33.41 14.93 33.41 15.19 33.73 15.38 34.19 15.38 34.52 15.19 34.52 14.93 34.19 14.74"/>
            <polygon class="cls-27" points="33.73 15.38 33.57 15.34 33.73 16.12 34.19 16.12 34.19 15.38 33.73 15.38"/>
            <polygon class="cls-21" points="33.73 15.38 33.41 15.19 33.41 15.93 33.73 16.12 33.73 15.38"/>
          </g>
          <g>
            <g>
              <polygon class="cls-17" points="34.36 14.84 34.05 14.94 34.13 15.27 34.36 15.14 34.36 14.84"/>
              <polygon class="cls-39" points="34.13 14.51 33.8 14.51 33.56 14.65 33.56 14.84 33.8 14.98 34.13 14.98 34.36 14.84 34.36 14.65 34.13 14.51"/>
              <polygon class="cls-27" points="33.8 14.98 33.68 15.06 33.8 15.27 34.13 15.27 34.13 14.98 33.8 14.98"/>
              <polygon class="cls-21" points="33.8 14.98 33.56 14.84 33.56 15.14 33.8 15.27 33.8 14.98"/>
            </g>
            <g>
              <polygon class="cls-20" points="34.31 14.57 34.04 14.65 34.11 14.94 34.31 14.82 34.31 14.57"/>
              <polygon class="cls-30" points="34.11 14.28 33.82 14.28 33.62 14.4 33.62 14.57 33.82 14.68 34.11 14.68 34.31 14.57 34.31 14.4 34.11 14.28"/>
              <polygon class="cls-29" points="33.82 14.68 33.72 14.75 33.82 14.94 34.11 14.94 34.11 14.68 33.82 14.68"/>
              <polygon class="cls-16" points="33.82 14.68 33.62 14.57 33.62 14.82 33.82 14.94 33.82 14.68"/>
            </g>
            <g>
              <polygon class="cls-20" points="34.25 13.8 34.03 13.86 34.08 14.63 34.25 14.53 34.25 13.8"/>
              <polygon class="cls-30" points="34.08 13.56 33.85 13.56 33.68 13.66 33.68 13.8 33.85 13.89 34.08 13.89 34.25 13.8 34.25 13.66 34.08 13.56"/>
              <polygon class="cls-29" points="33.85 13.89 33.76 13.95 33.85 14.63 34.08 14.63 34.08 13.89 33.85 13.89"/>
              <polygon class="cls-16" points="33.85 13.89 33.68 13.8 33.68 14.53 33.85 14.63 33.85 13.89"/>
            </g>
            <g>
              <polygon class="cls-24" points="34.46 13.68 34.07 13.79 34.17 14.01 34.46 13.84 34.46 13.68"/>
              <polygon class="cls-4" points="34.17 13.27 33.76 13.27 33.47 13.44 33.47 13.68 33.76 13.84 34.17 13.84 34.46 13.68 34.46 13.44 34.17 13.27"/>
              <polygon class="cls-24" points="34.13 13.53 34.13 13.59 34.03 13.54 33.89 13.54 33.8 13.59 33.8 13.53 33.89 13.47 34.03 13.47 34.13 13.53"/>
              <polygon class="cls-38" points="34.13 13.59 34.13 13.6 34.03 13.66 33.89 13.66 33.8 13.6 33.8 13.59 33.89 13.54 34.03 13.54 34.13 13.59"/>
              <polygon class="cls-38" points="33.76 13.84 33.61 13.84 33.76 14.01 34.17 14.01 34.17 13.84 33.76 13.84"/>
              <polygon class="cls-22" points="33.76 13.84 33.47 13.68 33.47 13.84 33.76 14.01 33.76 13.84"/>
            </g>
          </g>
        </g>
        <g>
          <g>
            <polygon class="cls-19" points="37.43 25.88 36.37 25.27 34.88 25.27 33.82 25.88 33.82 26.75 34.88 27.36 36.37 27.36 37.43 26.75 37.43 25.88"/>
            <g>
              <polygon class="cls-27" points="37.28 26.11 33.96 26.11 34.94 27.2 36.31 27.2 37.28 26.11"/>
              <polygon class="cls-17" points="37.28 26.11 36.31 26.68 36.31 27.2 37.28 26.64 37.28 26.11"/>
              <polygon class="cls-21" points="33.96 26.11 34.94 26.68 34.94 27.2 33.96 26.64 33.96 26.11"/>
              <polygon class="cls-19" points="36.31 26.71 34.94 26.71 33.96 26.14 33.96 26.41 34.94 26.97 36.31 26.97 37.28 26.41 37.28 26.14 36.31 26.71"/>
            </g>
            <polygon class="cls-17" points="37.4 20.08 36.02 20.5 36.36 26.87 37.4 26.27 37.4 20.08"/>
            <polygon class="cls-21" points="36.36 18.63 34.89 18.63 33.85 19.23 33.85 20.08 34.89 20.68 36.36 20.68 37.4 20.08 37.4 19.23 36.36 18.63"/>
            <polygon class="cls-39" points="36.49 18.51 35.98 18.21 35.26 18.21 34.75 18.51 34.75 18.92 35.26 19.22 35.98 19.22 36.49 18.92 36.49 18.51"/>
            <polygon class="cls-27" points="34.89 20.68 34.34 25.07 34.89 26.87 36.36 26.87 36.36 20.68 34.89 20.68"/>
            <polygon class="cls-21" points="36.36 20.68 35.98 19.22 35.26 19.22 34.89 20.68 36.36 20.68"/>
            <polygon class="cls-27" points="37.4 20.08 36.49 18.92 35.98 19.22 36.36 20.68 37.4 20.08"/>
            <polygon class="cls-17" points="37.4 19.23 36.49 18.51 36.49 18.92 37.4 20.08 37.4 19.23"/>
            <polygon class="cls-21" points="33.85 19.23 34.75 18.51 34.75 18.92 33.85 20.08 33.85 19.23"/>
            <polygon class="cls-39" points="34.89 20.68 35.26 19.22 34.75 18.92 33.85 20.08 34.89 20.68"/>
            <polygon class="cls-21" points="34.89 20.68 33.85 20.08 33.85 21.72 34.34 23.43 33.85 24.23 33.85 26.27 34.89 26.87 34.89 20.68"/>
            <g>
              <g>
                <polygon class="cls-10" points="33.85 21.72 34.89 22.33 35.03 22.85 34.89 24.83 33.85 24.23 33.85 23.65 34.11 23.6 33.85 23.21 33.85 21.72"/>
                <g>
                  <polygon class="cls-7" points="34.43 22.86 34.01 22.62 34.01 22.26 33.91 22.2 33.91 23.04 34.01 23.1 34.01 22.74 34.43 22.98 34.43 23.34 34.53 23.4 34.53 22.55 34.43 22.5 34.43 22.86"/>
                  <polygon class="cls-7" points="34.64 23.41 34.64 23.33 34.66 23.32 34.78 23.39 34.82 23.37 34.82 23.27 34.78 23.19 34.64 23.11 34.6 23.14 34.63 23.19 34.66 23.17 34.76 23.23 34.78 23.26 34.78 23.33 34.76 23.34 34.64 23.27 34.6 23.29 34.6 23.44 34.82 23.57 34.82 23.52 34.64 23.41"/>
                </g>
                <polygon class="cls-28" points="36.36 22.33 36.36 23.81 36.15 24.08 36.36 24.25 36.36 24.83 34.89 24.83 34.89 22.33 36.36 22.33"/>
              </g>
              <g>
                <polygon class="cls-7" points="33.85 23.21 34.89 23.81 35.09 24.1 34.89 24.25 33.85 23.65 33.85 23.21"/>
                <rect class="cls-1" x="34.89" y="23.81" width="1.47" height=".44"/>
              </g>
            </g>
          </g>
          <g>
            <polygon class="cls-17" points="36.41 18.72 35.8 18.91 35.95 19.16 36.41 18.9 36.41 18.72"/>
            <polygon class="cls-39" points="35.95 18.08 35.3 18.08 34.84 18.35 34.84 18.72 35.3 18.99 35.95 18.99 36.41 18.72 36.41 18.35 35.95 18.08"/>
            <polygon class="cls-27" points="35.3 18.99 35.07 18.93 35.3 19.16 35.95 19.16 35.95 18.99 35.3 18.99"/>
            <polygon class="cls-21" points="35.3 18.99 34.84 18.72 34.84 18.9 35.3 19.16 35.3 18.99"/>
          </g>
          <g>
            <polygon class="cls-17" points="36.18 17.93 35.75 18.06 35.85 18.86 36.18 18.67 36.18 17.93"/>
            <polygon class="cls-39" points="35.85 17.48 35.39 17.48 35.07 17.67 35.07 17.93 35.39 18.12 35.85 18.12 36.18 17.93 36.18 17.67 35.85 17.48"/>
            <polygon class="cls-27" points="35.39 18.12 35.23 18.08 35.39 18.86 35.85 18.86 35.85 18.12 35.39 18.12"/>
            <polygon class="cls-21" points="35.39 18.12 35.07 17.93 35.07 18.67 35.39 18.86 35.39 18.12"/>
          </g>
          <g>
            <g>
              <polygon class="cls-17" points="36.03 17.58 35.71 17.67 35.79 18.01 36.03 17.88 36.03 17.58"/>
              <polygon class="cls-39" points="35.79 17.25 35.46 17.25 35.22 17.39 35.22 17.58 35.46 17.72 35.79 17.72 36.03 17.58 36.03 17.39 35.79 17.25"/>
              <polygon class="cls-27" points="35.46 17.72 35.34 17.8 35.46 18.01 35.79 18.01 35.79 17.72 35.46 17.72"/>
              <polygon class="cls-21" points="35.46 17.72 35.22 17.58 35.22 17.88 35.46 18.01 35.46 17.72"/>
            </g>
            <g>
              <polygon class="cls-20" points="35.97 17.31 35.7 17.39 35.77 17.68 35.97 17.56 35.97 17.31"/>
              <polygon class="cls-30" points="35.77 17.02 35.48 17.02 35.28 17.14 35.28 17.31 35.48 17.42 35.77 17.42 35.97 17.31 35.97 17.14 35.77 17.02"/>
              <polygon class="cls-29" points="35.48 17.42 35.38 17.49 35.48 17.68 35.77 17.68 35.77 17.42 35.48 17.42"/>
              <polygon class="cls-16" points="35.48 17.42 35.28 17.31 35.28 17.56 35.48 17.68 35.48 17.42"/>
            </g>
            <g>
              <polygon class="cls-20" points="35.91 16.53 35.69 16.6 35.74 17.37 35.91 17.27 35.91 16.53"/>
              <polygon class="cls-30" points="35.74 16.3 35.51 16.3 35.34 16.4 35.34 16.53 35.51 16.63 35.74 16.63 35.91 16.53 35.91 16.4 35.74 16.3"/>
              <polygon class="cls-29" points="35.51 16.63 35.42 16.69 35.51 17.37 35.74 17.37 35.74 16.63 35.51 16.63"/>
              <polygon class="cls-16" points="35.51 16.63 35.34 16.53 35.34 17.27 35.51 17.37 35.51 16.63"/>
            </g>
            <g>
              <polygon class="cls-24" points="36.12 16.42 35.74 16.53 35.83 16.75 36.12 16.58 36.12 16.42"/>
              <polygon class="cls-4" points="35.83 16.01 35.42 16.01 35.13 16.18 35.13 16.42 35.42 16.58 35.83 16.58 36.12 16.42 36.12 16.18 35.83 16.01"/>
              <polygon class="cls-24" points="35.79 16.26 35.79 16.33 35.69 16.28 35.56 16.28 35.46 16.33 35.46 16.26 35.56 16.21 35.69 16.21 35.79 16.26"/>
              <polygon class="cls-38" points="35.79 16.33 35.79 16.34 35.69 16.4 35.56 16.4 35.46 16.34 35.46 16.33 35.56 16.28 35.69 16.28 35.79 16.33"/>
              <polygon class="cls-38" points="35.42 16.58 35.27 16.58 35.42 16.75 35.83 16.75 35.83 16.58 35.42 16.58"/>
              <polygon class="cls-22" points="35.42 16.58 35.13 16.42 35.13 16.58 35.42 16.75 35.42 16.58"/>
            </g>
          </g>
        </g>
        <g>
          <g>
            <polygon class="cls-19" points="33.08 25.51 32.02 24.9 30.53 24.9 29.47 25.51 29.47 26.38 30.53 26.99 32.02 26.99 33.08 26.38 33.08 25.51"/>
            <g>
              <polygon class="cls-27" points="32.93 25.74 29.61 25.74 30.59 26.83 31.96 26.83 32.93 25.74"/>
              <polygon class="cls-17" points="32.93 25.74 31.96 26.3 31.96 26.83 32.93 26.27 32.93 25.74"/>
              <polygon class="cls-21" points="29.61 25.74 30.59 26.3 30.59 26.83 29.61 26.27 29.61 25.74"/>
              <polygon class="cls-19" points="31.96 26.33 30.59 26.33 29.61 25.77 29.61 26.03 30.59 26.6 31.96 26.6 32.93 26.03 32.93 25.77 31.96 26.33"/>
            </g>
            <polygon class="cls-17" points="33.05 19.71 31.67 20.12 32.01 26.5 33.05 25.9 33.05 19.71"/>
            <polygon class="cls-21" points="32.01 18.26 30.54 18.26 29.5 18.86 29.5 19.71 30.54 20.31 32.01 20.31 33.05 19.71 33.05 18.86 32.01 18.26"/>
            <polygon class="cls-39" points="32.14 18.14 31.63 17.84 30.91 17.84 30.4 18.14 30.4 18.55 30.91 18.84 31.63 18.84 32.14 18.55 32.14 18.14"/>
            <polygon class="cls-27" points="30.54 20.31 29.99 24.7 30.54 26.5 32.01 26.5 32.01 20.31 30.54 20.31"/>
            <polygon class="cls-21" points="32.01 20.31 31.63 18.84 30.91 18.84 30.54 20.31 32.01 20.31"/>
            <polygon class="cls-27" points="33.05 19.71 32.14 18.55 31.63 18.84 32.01 20.31 33.05 19.71"/>
            <polygon class="cls-17" points="33.05 18.86 32.14 18.14 32.14 18.55 33.05 19.71 33.05 18.86"/>
            <polygon class="cls-21" points="29.5 18.86 30.4 18.14 30.4 18.55 29.5 19.71 29.5 18.86"/>
            <polygon class="cls-39" points="30.54 20.31 30.91 18.84 30.4 18.55 29.5 19.71 30.54 20.31"/>
            <polygon class="cls-21" points="30.54 20.31 29.5 19.71 29.5 21.35 29.99 23.06 29.5 23.86 29.5 25.9 30.54 26.5 30.54 20.31"/>
            <g>
              <g>
                <polygon class="cls-10" points="29.5 21.35 30.54 21.95 30.68 22.48 30.54 24.46 29.5 23.86 29.5 23.28 29.76 23.23 29.5 22.84 29.5 21.35"/>
                <g>
                  <polygon class="cls-7" points="30.08 22.49 29.66 22.25 29.66 21.88 29.56 21.83 29.56 22.67 29.66 22.73 29.66 22.37 30.08 22.6 30.08 22.97 30.18 23.02 30.18 22.18 30.08 22.12 30.08 22.49"/>
                  <polygon class="cls-7" points="30.29 23.04 30.29 22.96 30.31 22.95 30.43 23.02 30.47 23 30.47 22.89 30.43 22.82 30.29 22.74 30.25 22.77 30.28 22.82 30.31 22.8 30.41 22.86 30.43 22.89 30.43 22.95 30.41 22.96 30.29 22.89 30.25 22.92 30.25 23.07 30.47 23.19 30.47 23.15 30.29 23.04"/>
                </g>
                <polygon class="cls-28" points="32.01 21.95 32.01 23.44 31.8 23.71 32.01 23.88 32.01 24.46 30.54 24.46 30.54 21.95 32.01 21.95"/>
              </g>
              <g>
                <polygon class="cls-7" points="29.5 22.84 30.54 23.44 30.74 23.73 30.54 23.88 29.5 23.28 29.5 22.84"/>
                <rect class="cls-1" x="30.54" y="23.44" width="1.47" height=".44"/>
              </g>
            </g>
          </g>
          <g>
            <polygon class="cls-17" points="32.06 18.35 31.45 18.53 31.6 18.79 32.06 18.53 32.06 18.35"/>
            <polygon class="cls-39" points="31.6 17.71 30.95 17.71 30.49 17.97 30.49 18.35 30.95 18.61 31.6 18.61 32.06 18.35 32.06 17.97 31.6 17.71"/>
            <polygon class="cls-27" points="30.95 18.61 30.72 18.56 30.95 18.79 31.6 18.79 31.6 18.61 30.95 18.61"/>
            <polygon class="cls-21" points="30.95 18.61 30.49 18.35 30.49 18.53 30.95 18.79 30.95 18.61"/>
          </g>
          <g>
            <polygon class="cls-17" points="31.83 17.56 31.4 17.69 31.5 18.48 31.83 18.3 31.83 17.56"/>
            <polygon class="cls-39" points="31.5 17.11 31.04 17.11 30.72 17.29 30.72 17.56 31.04 17.75 31.5 17.75 31.83 17.56 31.83 17.29 31.5 17.11"/>
            <polygon class="cls-27" points="31.04 17.75 30.88 17.71 31.04 18.48 31.5 18.48 31.5 17.75 31.04 17.75"/>
            <polygon class="cls-21" points="31.04 17.75 30.72 17.56 30.72 18.3 31.04 18.48 31.04 17.75"/>
          </g>
          <g>
            <g>
              <polygon class="cls-17" points="31.68 17.21 31.36 17.3 31.44 17.64 31.68 17.5 31.68 17.21"/>
              <polygon class="cls-39" points="31.44 16.88 31.11 16.88 30.87 17.02 30.87 17.21 31.11 17.34 31.44 17.34 31.68 17.21 31.68 17.02 31.44 16.88"/>
              <polygon class="cls-27" points="31.11 17.34 30.99 17.42 31.11 17.64 31.44 17.64 31.44 17.34 31.11 17.34"/>
              <polygon class="cls-21" points="31.11 17.34 30.87 17.21 30.87 17.5 31.11 17.64 31.11 17.34"/>
            </g>
            <g>
              <polygon class="cls-20" points="31.62 16.93 31.35 17.01 31.42 17.31 31.62 17.19 31.62 16.93"/>
              <polygon class="cls-30" points="31.42 16.65 31.13 16.65 30.93 16.77 30.93 16.93 31.13 17.05 31.42 17.05 31.62 16.93 31.62 16.77 31.42 16.65"/>
              <polygon class="cls-29" points="31.13 17.05 31.03 17.12 31.13 17.31 31.42 17.31 31.42 17.05 31.13 17.05"/>
              <polygon class="cls-16" points="31.13 17.05 30.93 16.93 30.93 17.19 31.13 17.31 31.13 17.05"/>
            </g>
            <g>
              <polygon class="cls-20" points="31.56 16.16 31.34 16.23 31.39 17 31.56 16.9 31.56 16.16"/>
              <polygon class="cls-30" points="31.39 15.93 31.16 15.93 30.99 16.03 30.99 16.16 31.16 16.26 31.39 16.26 31.56 16.16 31.56 16.03 31.39 15.93"/>
              <polygon class="cls-29" points="31.16 16.26 31.07 16.31 31.16 17 31.39 17 31.39 16.26 31.16 16.26"/>
              <polygon class="cls-16" points="31.16 16.26 30.99 16.16 30.99 16.9 31.16 17 31.16 16.26"/>
            </g>
            <g>
              <polygon class="cls-24" points="31.77 16.04 31.38 16.16 31.48 16.38 31.77 16.21 31.77 16.04"/>
              <polygon class="cls-4" points="31.48 15.64 31.07 15.64 30.78 15.81 30.78 16.04 31.07 16.21 31.48 16.21 31.77 16.04 31.77 15.81 31.48 15.64"/>
              <polygon class="cls-24" points="31.44 15.89 31.44 15.96 31.34 15.9 31.21 15.9 31.11 15.96 31.11 15.89 31.21 15.84 31.34 15.84 31.44 15.89"/>
              <polygon class="cls-38" points="31.44 15.96 31.44 15.97 31.34 16.03 31.21 16.03 31.11 15.97 31.11 15.96 31.21 15.9 31.34 15.9 31.44 15.96"/>
              <polygon class="cls-38" points="31.07 16.21 30.92 16.21 31.07 16.38 31.48 16.38 31.48 16.21 31.07 16.21"/>
              <polygon class="cls-22" points="31.07 16.21 30.78 16.04 30.78 16.21 31.07 16.38 31.07 16.21"/>
            </g>
          </g>
        </g>
      </g>
      <g>
        <polygon class="cls-19" points="30.61 14.16 28.7 13.05 26.09 12.65 23.48 13.05 21.57 14.16 20.87 15.66 21.57 17.17 23.48 18.27 26.09 18.68 28.7 18.27 30.61 17.17 31.31 15.66 30.61 14.16"/>
        <g>
          <path class="cls-24" d="M30.47,12.24l-1.83-1.06-2.55-.39-2.57,.4-1.83,1.07-.66,1.44h-.07s0,.29,0,.29l.69,1.48,1.88,1.09,2.57,.4,2.57-.4,1.88-1.09,.69-1.48v-.3l-.06-.02-.7-1.43Zm.03,2.89l-1.84,1.05-2.57,.42-2.53-.39-1.85-1.08-.52-1.1,.63-1.36,1.78-1.03,2.49-.39,2.49,.39,1.78,1.03,.63,1.36-.49,1.1Z"/>
          <path class="cls-4" d="M30.54,12.21l-1.88-1.09-2.57-.4-2.57,.4-1.88,1.09-.69,1.48,.69,1.48,1.88,1.09,2.57,.4,2.57-.4,1.88-1.09,.69-1.48-.69-1.48Zm-.09,2.88l-1.83,1.06-2.53,.39-2.53-.39-1.83-1.06-.65-1.4,.65-1.4,1.83-1.06,2.53-.39,2.53,.39,1.83,1.06,.65,1.4-.65,1.4Z"/>
        </g>
        <g>
          <g>
            <polygon class="cls-15" points="26.85 15.44 26.41 15.18 25.78 15.18 25.34 15.44 25.34 15.8 25.78 16.06 26.41 16.06 26.85 15.8 26.85 15.44"/>
            <rect class="cls-13" x="25.78" y="16.06" width=".62" height=".07"/>
            <polygon class="cls-34" points="26.85 15.88 26.41 16.13 26.41 16.06 26.85 15.8 26.85 15.88"/>
            <polygon class="cls-36" points="25.34 15.88 25.78 16.13 25.78 16.06 25.34 15.8 25.34 15.88"/>
          </g>
          <polygon class="cls-36" points="25.41 13.74 25.41 15.78 25.81 16.01 25.96 13.89 25.41 13.74"/>
          <polygon class="cls-13" points="25.81 13.97 25.81 16.01 26.38 16.01 26.78 13.74 25.81 13.97"/>
          <polygon class="cls-34" points="26.38 13.97 26.38 16.01 26.78 15.78 26.78 13.74 26.38 13.97"/>
          <polygon class="cls-38" points="25.88 13.53 26.32 13.53 26.38 13.97 25.81 13.97 25.77 13.7 25.88 13.53"/>
          <polygon class="cls-22" points="25.57 13.35 25.88 13.53 25.81 13.97 25.41 13.74 25.57 13.35"/>
          <polygon class="cls-38" points="25.57 13.1 25.57 13.35 25.41 13.74 25.41 13.41 25.57 13.1"/>
          <polygon class="cls-24" points="26.32 13.53 26.63 13.35 26.78 13.74 26.38 13.97 26.32 13.53"/>
          <polygon class="cls-38" points="26.63 13.35 26.63 13.1 26.78 13.41 26.78 13.74 26.63 13.35"/>
          <polygon class="cls-4" points="25.88 12.92 26.32 12.92 26.63 13.1 26.63 13.35 26.32 13.53 25.88 13.53 25.57 13.35 25.57 13.1 25.88 12.92"/>
        </g>
        <polygon class="cls-39" points="21.62 8.56 23.49 7.48 26.09 7.07 28.68 7.48 30.55 8.56 31.22 9.99 31.35 9.99 30.65 8.47 28.72 7.36 26.09 6.95 23.45 7.36 21.52 8.47 20.82 9.99 20.95 9.99 21.62 8.56"/>
        <g>
          <polygon class="cls-5" points="27.56 14.53 26.09 14.75 24.62 14.53 23.59 14.47 24.69 14.78 26.09 15.12 27.55 14.78 28.59 14.47 27.56 14.53"/>
          <polygon class="cls-8" points="28.13 13.63 24.05 13.63 22.69 13.72 23.59 14.47 26.09 15.07 28.59 14.47 29.5 13.72 28.13 13.63"/>
          <polygon class="cls-14" points="29.95 10.34 28.18 12.22 24 12.22 22.23 10.34 20.95 9.99 21.27 11.75 22.69 13.72 26.09 14.53 29.5 13.72 30.91 11.75 31.23 9.99 29.95 10.34"/>
          <polygon class="cls-23" points="30.91 8.23 29.87 8.56 27.68 10.08 24.5 10.08 22.31 8.56 21.27 8.23 20.95 9.99 22.47 12.09 26.09 12.96 29.73 12.09 31.23 9.99 30.91 8.23"/>
          <polygon class="cls-26" points="29.5 6.27 28.59 5.53 28.7 6.08 28.65 7.22 27.34 8.5 24.84 8.5 23.53 7.22 23.48 6.08 23.59 5.53 22.68 6.27 21.27 8.23 22.69 10.2 26.09 11.02 29.5 10.2 30.91 8.23 29.5 6.27"/>
          <polygon class="cls-37" points="28.59 5.53 27.5 5.21 27.63 5.6 27.54 6.18 26.58 6.66 25.6 6.66 24.64 6.18 24.55 5.6 24.68 5.21 23.59 5.53 22.55 6.97 23.59 8.42 26.09 9.02 28.6 8.42 29.63 6.97 28.59 5.53"/>
          <polygon class="cls-35" points="27.5 5.21 26.9 5.06 27.01 5.4 26.84 5.7 26.48 5.84 25.7 5.84 25.34 5.7 25.17 5.4 25.28 5.06 24.68 5.21 24.11 6.02 24.69 6.83 26.09 7.17 27.5 6.83 28.08 6.02 27.5 5.21"/>
          <polygon class="cls-3" points="26.9 6 27.24 5.53 26.9 5.06 26.09 4.87 25.28 5.07 24.94 5.53 25.28 6 26.09 6.2 26.9 6"/>
        </g>
        <g>
          <polygon class="cls-17" points="31.11 10.35 30.6 11.47 28.72 12.55 26.09 12.98 23.49 12.59 21.59 11.48 21.06 10.35 20.9 9.99 20.82 9.99 20.82 10.3 21.53 11.82 23.45 12.94 26.09 13.35 28.72 12.94 30.65 11.83 31.35 10.3 31.35 9.99 31.11 10.35"/>
          <polygon class="cls-39" points="30.55 11.43 28.68 12.51 26.09 12.91 23.49 12.51 21.62 11.43 20.95 9.99 20.92 9.92 20.82 9.99 21.53 11.51 23.45 12.63 26.09 13.03 28.72 12.63 30.65 11.51 31.35 9.99 31.27 9.96 31.22 9.99 30.55 11.43"/>
        </g>
        <g>
          <polygon class="cls-17" points="27.31 5.37 26.36 5.66 26.6 6.4 27.31 5.99 27.31 5.37"/>
          <polygon class="cls-39" points="26.6 4.37 25.58 4.37 24.87 4.78 24.87 5.37 25.58 5.78 26.6 5.78 27.31 5.37 27.31 4.78 26.6 4.37"/>
          <polygon class="cls-27" points="25.58 5.78 25.32 5.88 25.58 6.4 26.6 6.4 26.6 5.78 25.58 5.78"/>
          <polygon class="cls-21" points="25.58 5.78 24.87 5.37 24.87 5.99 25.58 6.4 25.58 5.78"/>
        </g>
        <g>
          <g>
            <polygon class="cls-4" points="26.48 18.83 26.26 18.69 25.94 18.69 25.71 18.83 25.71 19.01 25.94 19.14 26.26 19.14 26.48 19.01 26.48 18.83"/>
            <rect class="cls-38" x="25.94" y="19.14" width=".32" height=".04"/>
            <polygon class="cls-24" points="26.48 19.05 26.26 19.18 26.26 19.14 26.48 19.01 26.48 19.05"/>
            <polygon class="cls-22" points="25.71 19.05 25.94 19.18 25.94 19.14 25.71 19.01 25.71 19.05"/>
          </g>
          <polygon class="cls-22" points="25.75 13.36 25.75 19 25.95 19.12 26.02 13.44 25.75 13.36"/>
          <polygon class="cls-38" points="25.95 13.48 25.95 19.12 26.24 19.12 26.45 13.36 25.95 13.48"/>
          <polygon class="cls-24" points="26.24 13.48 26.24 19.12 26.45 19 26.45 13.36 26.24 13.48"/>
          <polygon class="cls-38" points="25.98 13.26 26.21 13.26 26.24 13.48 25.95 13.48 25.93 13.34 25.98 13.26"/>
          <polygon class="cls-22" points="25.82 13.16 25.98 13.26 25.95 13.48 25.75 13.36 25.82 13.16"/>
          <polygon class="cls-38" points="25.82 13.03 25.82 13.16 25.75 13.36 25.75 13.2 25.82 13.03"/>
          <polygon class="cls-24" points="26.21 13.26 26.37 13.16 26.45 13.36 26.24 13.48 26.21 13.26"/>
          <polygon class="cls-38" points="26.37 13.16 26.37 13.03 26.45 13.2 26.45 13.36 26.37 13.16"/>
          <polygon class="cls-4" points="25.98 12.94 26.21 12.94 26.37 13.03 26.37 13.16 26.21 13.26 25.98 13.26 25.82 13.16 25.82 13.03 25.98 12.94"/>
        </g>
        <g>
          <g>
            <polygon class="cls-4" points="32.08 15.55 31.86 15.42 31.54 15.42 31.31 15.55 31.31 15.73 31.54 15.86 31.86 15.86 32.08 15.73 32.08 15.55"/>
            <rect class="cls-38" x="31.54" y="15.86" width=".32" height=".04"/>
            <polygon class="cls-24" points="32.08 15.77 31.86 15.9 31.86 15.86 32.08 15.73 32.08 15.77"/>
            <polygon class="cls-22" points="31.31 15.77 31.54 15.9 31.54 15.86 31.31 15.73 31.31 15.77"/>
          </g>
          <polygon class="cls-22" points="31.35 10.09 31.35 15.72 31.55 15.84 31.62 10.16 31.35 10.09"/>
          <polygon class="cls-38" points="31.55 10.21 31.55 15.84 31.84 15.84 32.05 10.09 31.55 10.21"/>
          <polygon class="cls-24" points="31.84 10.21 31.84 15.84 32.05 15.72 32.05 10.09 31.84 10.21"/>
          <polygon class="cls-38" points="31.58 9.98 31.81 9.98 31.84 10.21 31.55 10.21 31.53 10.07 31.58 9.98"/>
          <polygon class="cls-22" points="31.42 9.89 31.58 9.98 31.55 10.21 31.35 10.09 31.42 9.89"/>
          <polygon class="cls-38" points="31.42 9.76 31.42 9.89 31.35 10.09 31.34 9.92 31.42 9.76"/>
          <polygon class="cls-24" points="31.81 9.98 31.97 9.89 32.05 10.09 31.84 10.21 31.81 9.98"/>
          <polygon class="cls-38" points="31.97 9.89 31.97 9.76 32.05 9.92 32.05 10.09 31.97 9.89"/>
          <polygon class="cls-4" points="31.58 9.67 31.81 9.67 31.97 9.76 31.97 9.89 31.81 9.98 31.58 9.98 31.42 9.89 31.42 9.76 31.58 9.67"/>
        </g>
        <g>
          <g>
            <polygon class="cls-4" points="30.21 17.85 29.99 17.72 29.67 17.72 29.44 17.85 29.44 18.04 29.67 18.17 29.99 18.17 30.21 18.04 30.21 17.85"/>
            <rect class="cls-38" x="29.67" y="18.17" width=".32" height=".04"/>
            <polygon class="cls-24" points="30.21 18.08 29.99 18.21 29.99 18.17 30.21 18.04 30.21 18.08"/>
            <polygon class="cls-22" points="29.44 18.08 29.67 18.21 29.67 18.17 29.44 18.04 29.44 18.08"/>
          </g>
          <polygon class="cls-22" points="29.48 12.39 29.48 18.02 29.68 18.14 29.75 12.47 29.48 12.39"/>
          <polygon class="cls-38" points="29.68 12.51 29.68 18.14 29.97 18.14 30.18 12.39 29.68 12.51"/>
          <polygon class="cls-24" points="29.97 12.51 29.97 18.14 30.18 18.02 30.18 12.39 29.97 12.51"/>
          <polygon class="cls-38" points="29.71 12.28 29.94 12.28 29.97 12.51 29.68 12.51 29.66 12.37 29.71 12.28"/>
          <polygon class="cls-22" points="29.56 12.19 29.71 12.28 29.68 12.51 29.48 12.39 29.56 12.19"/>
          <polygon class="cls-38" points="29.56 12.06 29.56 12.19 29.48 12.39 29.48 12.22 29.56 12.06"/>
          <polygon class="cls-24" points="29.94 12.28 30.1 12.19 30.18 12.39 29.97 12.51 29.94 12.28"/>
          <polygon class="cls-38" points="30.1 12.19 30.1 12.06 30.18 12.22 30.18 12.39 30.1 12.19"/>
          <polygon class="cls-4" points="29.71 11.97 29.94 11.97 30.1 12.06 30.1 12.19 29.94 12.28 29.71 12.28 29.56 12.19 29.56 12.06 29.71 11.97"/>
        </g>
        <g>
          <g>
            <polygon class="cls-4" points="22.76 17.85 22.53 17.72 22.21 17.72 21.98 17.85 21.98 18.04 22.21 18.17 22.53 18.17 22.76 18.04 22.76 17.85"/>
            <rect class="cls-38" x="22.21" y="18.17" width=".32" height=".04"/>
            <polygon class="cls-24" points="22.76 18.08 22.53 18.21 22.53 18.17 22.76 18.04 22.76 18.08"/>
            <polygon class="cls-22" points="21.98 18.08 22.21 18.21 22.21 18.17 21.98 18.04 21.98 18.08"/>
          </g>
          <polygon class="cls-22" points="22.02 12.39 22.02 18.02 22.22 18.14 22.3 12.47 22.02 12.39"/>
          <polygon class="cls-38" points="22.22 12.51 22.22 18.14 22.51 18.14 22.72 12.39 22.22 12.51"/>
          <polygon class="cls-24" points="22.51 12.51 22.51 18.14 22.72 18.02 22.72 12.39 22.51 12.51"/>
          <polygon class="cls-38" points="22.26 12.28 22.48 12.28 22.51 12.51 22.22 12.51 22.2 12.37 22.26 12.28"/>
          <polygon class="cls-22" points="22.1 12.19 22.26 12.28 22.22 12.51 22.02 12.39 22.1 12.19"/>
          <polygon class="cls-38" points="22.1 12.06 22.1 12.19 22.02 12.39 22.02 12.22 22.1 12.06"/>
          <polygon class="cls-24" points="22.48 12.28 22.64 12.19 22.72 12.39 22.51 12.51 22.48 12.28"/>
          <polygon class="cls-38" points="22.64 12.19 22.64 12.06 22.72 12.22 22.72 12.39 22.64 12.19"/>
          <polygon class="cls-4" points="22.26 11.97 22.48 11.97 22.64 12.06 22.64 12.19 22.48 12.28 22.26 12.28 22.1 12.19 22.1 12.06 22.26 11.97"/>
        </g>
        <g>
          <g>
            <polygon class="cls-4" points="20.87 15.55 20.64 15.42 20.32 15.42 20.1 15.55 20.1 15.73 20.32 15.86 20.64 15.86 20.87 15.73 20.87 15.55"/>
            <rect class="cls-38" x="20.32" y="15.86" width=".32" height=".04"/>
            <polygon class="cls-24" points="20.87 15.77 20.64 15.9 20.64 15.86 20.87 15.73 20.87 15.77"/>
            <polygon class="cls-22" points="20.1 15.77 20.32 15.9 20.32 15.86 20.1 15.73 20.1 15.77"/>
          </g>
          <polygon class="cls-22" points="20.13 10.09 20.13 15.72 20.34 15.84 20.41 10.16 20.13 10.09"/>
          <polygon class="cls-38" points="20.34 10.21 20.34 15.84 20.63 15.84 20.83 10.09 20.34 10.21"/>
          <polygon class="cls-24" points="20.63 10.21 20.63 15.84 20.83 15.72 20.83 10.09 20.63 10.21"/>
          <polygon class="cls-38" points="20.37 9.98 20.6 9.98 20.63 10.21 20.34 10.21 20.31 10.07 20.37 9.98"/>
          <polygon class="cls-22" points="20.21 9.89 20.37 9.98 20.34 10.21 20.13 10.09 20.21 9.89"/>
          <polygon class="cls-38" points="20.21 9.76 20.21 9.89 20.13 10.09 20.13 9.92 20.21 9.76"/>
          <polygon class="cls-24" points="20.6 9.98 20.76 9.89 20.83 10.09 20.63 10.21 20.6 9.98"/>
          <polygon class="cls-38" points="20.76 9.89 20.76 9.76 20.83 9.92 20.83 10.09 20.76 9.89"/>
          <polygon class="cls-4" points="20.37 9.67 20.6 9.67 20.76 9.76 20.76 9.89 20.6 9.98 20.37 9.98 20.21 9.89 20.21 9.76 20.37 9.67"/>
        </g>
        <g>
          <g>
            <g>
              <polygon class="cls-34" points="26.53 5.09 26.53 5.17 26.27 5.32 26.18 5.18 26.53 5.09"/>
              <polygon class="cls-13" points="26.27 5.24 26.27 5.32 25.9 5.32 25.64 5.09 26.27 5.24"/>
              <polygon class="cls-36" points="25.9 5.24 25.9 5.32 25.64 5.17 25.64 5.09 25.9 5.24"/>
              <polygon class="cls-15" points="25.64 4.88 25.64 5.09 25.9 5.24 26.27 5.24 26.53 5.09 26.53 4.88 26.27 4.73 25.9 4.73 25.64 4.88"/>
            </g>
            <g>
              <polygon class="cls-24" points="26.24 2.26 26.2 2.36 26.24 5.18 26.46 5.05 26.46 1.88 26.24 2.26"/>
              <polygon class="cls-38" points="25.93 1.83 25.85 2.33 25.93 5.18 26.24 5.18 26.24 2.01 26.01 2.03 25.93 1.83"/>
              <polygon class="cls-22" points="25.93 1.83 25.93 5.18 25.71 5.05 25.71 1.88 25.9 1.73 25.93 1.83"/>
            </g>
          </g>
          <g>
            <g>
              <polygon class="cls-34" points="19.57 19.68 19.57 19.76 19.31 19.91 19.22 19.77 19.57 19.68"/>
              <polygon class="cls-13" points="19.31 19.83 19.31 19.91 18.94 19.91 18.68 19.68 19.31 19.83"/>
              <polygon class="cls-36" points="18.94 19.83 18.94 19.91 18.68 19.76 18.68 19.68 18.94 19.83"/>
              <polygon class="cls-15" points="18.68 19.47 18.68 19.68 18.94 19.83 19.31 19.83 19.57 19.68 19.57 19.47 19.31 19.32 18.94 19.32 18.68 19.47"/>
            </g>
            <g>
              <polygon class="cls-24" points="19.28 6.02 19.24 6.37 19.28 19.77 19.5 19.64 19.5 6.15 19.28 6.02"/>
              <polygon class="cls-38" points="18.97 5.84 18.89 6.35 18.97 19.77 19.28 19.77 19.28 6.02 19.25 5.84 18.97 5.84"/>
              <polygon class="cls-22" points="18.97 5.84 18.97 19.77 18.75 19.64 18.75 5.71 18.94 5.74 18.97 5.84"/>
            </g>
          </g>
          <g>
            <polygon class="cls-28" points="18.75 5.71 26.02 1.52 26.24 1.65 25.68 2.12 20.16 5.26 18.97 5.84 18.75 5.71"/>
            <polygon class="cls-38" points="18.97 5.84 26.24 1.65 26.46 1.88 24.85 2.97 19.28 6.02 18.97 5.84"/>
            <polygon class="cls-24" points="19.28 6.02 26.46 1.88 26.24 2.26 19.5 6.15 19.4 6.22 19.28 6.02"/>
          </g>
        </g>
      </g>
      <g>
        <polygon class="cls-19" points="20.09 21.74 14.92 24.72 11.31 22.64 16.48 19.65 20.09 21.74"/>
        <g>
          <g>
            <polygon class="cls-33" points="11.26 20.56 11.38 20.35 11.48 20.41 11.39 20.6 11.26 20.56"/>
            <polygon class="cls-33" points="16.81 17.78 16.93 18 16.84 18.04 16.71 17.88 16.81 17.78"/>
            <rect class="cls-33" x="11.75" y="22.59" width=".24" height=".18"/>
            <rect class="cls-33" x="11.71" y="20.66" width=".34" height=".28"/>
            <polygon class="cls-31" points="11.87 20.91 11.75 20.7 11.38 20.49 11.26 20.56 11.26 22.34 11.38 22.55 11.75 22.77 11.87 22.7 11.87 20.91"/>
            <polygon class="cls-6" points="16.93 18 16.81 17.93 12 20.7 11.87 20.91 11.87 22.7 12 22.77 16.81 19.99 16.93 19.78 16.93 18"/>
            <polygon class="cls-32" points="16.81 17.93 16.81 17.78 16.43 17.57 16.19 17.57 11.38 20.35 11.38 20.49 11.75 20.7 12 20.7 16.81 17.93"/>
          </g>
          <g>
            <g>
              <polygon class="cls-33" points="12.81 21.71 12.14 21.32 12.1 21.35 12.77 21.75 12.81 21.71"/>
              <polygon class="cls-6" points="12.77 21.73 12.1 21.35 12.07 21.39 12.74 21.82 12.77 21.73"/>
              <polygon class="cls-9" points="12.74 21.78 12.07 21.39 12.07 21.44 12.74 21.82 12.74 21.78"/>
              <polygon class="cls-25" points="12.77 21.84 12.74 21.82 12.74 21.78 12.77 21.73 12.81 21.71 12.83 21.73 12.83 21.77 12.81 21.82 12.77 21.84"/>
            </g>
            <g>
              <polygon class="cls-33" points="12.81 22.43 12.14 22.04 12.1 22.06 12.77 22.47 12.81 22.43"/>
              <polygon class="cls-6" points="12.77 22.45 12.1 22.06 12.07 22.11 12.74 22.54 12.77 22.45"/>
              <polygon class="cls-9" points="12.74 22.5 12.07 22.11 12.07 22.15 12.74 22.54 12.74 22.5"/>
              <polygon class="cls-25" points="12.77 22.56 12.74 22.54 12.74 22.5 12.77 22.45 12.81 22.43 12.83 22.44 12.83 22.49 12.81 22.53 12.77 22.56"/>
            </g>
          </g>
          <g>
            <polygon class="cls-28" points="11.26 18.24 11.38 18.02 11.48 18.09 11.39 18.28 11.26 18.24"/>
            <polygon class="cls-28" points="16.81 15.46 16.93 15.67 16.84 15.72 16.71 15.56 16.81 15.46"/>
            <rect class="cls-28" x="11.75" y="20.27" width=".24" height=".18"/>
            <rect class="cls-28" x="11.71" y="18.33" width=".34" height=".28"/>
            <polygon class="cls-10" points="11.87 18.59 11.75 18.38 11.38 18.17 11.26 18.24 11.26 20.02 11.38 20.23 11.75 20.45 11.87 20.38 11.87 18.59"/>
            <g>
              <path class="cls-11" d="M11.65,18.98l-.16-.09,.08-.11,.08,.2Zm-.24-.08l.33,.19-.16-.41-.16,.22Z"/>
              <polygon class="cls-12" points="11.45 18.89 11.69 19.03 11.57 18.72 11.45 18.89"/>
            </g>
            <polygon class="cls-5" points="16.93 15.67 16.81 15.6 12 18.38 11.87 18.59 11.87 20.38 12 20.45 16.81 17.67 16.93 17.46 16.93 15.67"/>
            <polygon class="cls-3" points="16.81 15.6 16.81 15.46 16.43 15.25 16.19 15.25 11.38 18.02 11.38 18.17 11.75 18.38 12 18.38 16.81 15.6"/>
          </g>
          <g>
            <g>
              <polygon class="cls-33" points="12.81 19.33 12.14 18.94 12.1 18.96 12.77 19.36 12.81 19.33"/>
              <polygon class="cls-6" points="12.77 19.35 12.1 18.96 12.07 19.01 12.74 19.44 12.77 19.35"/>
              <polygon class="cls-9" points="12.74 19.39 12.07 19.01 12.07 19.05 12.74 19.44 12.74 19.39"/>
              <polygon class="cls-25" points="12.77 19.45 12.74 19.44 12.74 19.39 12.77 19.35 12.81 19.33 12.83 19.34 12.83 19.38 12.81 19.43 12.77 19.45"/>
            </g>
            <g>
              <polygon class="cls-33" points="12.81 20.04 12.14 19.65 12.1 19.67 12.77 20.08 12.81 20.04"/>
              <polygon class="cls-6" points="12.77 20.06 12.1 19.67 12.07 19.72 12.74 20.15 12.77 20.06"/>
              <polygon class="cls-9" points="12.74 20.11 12.07 19.72 12.07 19.76 12.74 20.15 12.74 20.11"/>
              <polygon class="cls-25" points="12.77 20.17 12.74 20.15 12.74 20.11 12.77 20.06 12.81 20.04 12.83 20.06 12.83 20.1 12.81 20.15 12.77 20.17"/>
            </g>
          </g>
        </g>
        <g>
          <g>
            <polygon class="cls-33" points="12.27 21.14 12.4 20.93 12.49 21 12.41 21.19 12.27 21.14"/>
            <polygon class="cls-33" points="17.82 18.37 17.94 18.58 17.86 18.63 17.73 18.47 17.82 18.37"/>
            <rect class="cls-33" x="12.77" y="23.18" width=".25" height=".18"/>
            <rect class="cls-33" x="12.73" y="21.24" width=".34" height=".28"/>
            <polygon class="cls-31" points="12.89 21.5 12.77 21.29 12.4 21.07 12.27 21.14 12.27 22.93 12.4 23.14 12.77 23.36 12.89 23.28 12.89 21.5"/>
            <polygon class="cls-6" points="17.94 18.58 17.82 18.51 13.01 21.29 12.89 21.5 12.89 23.28 13.01 23.36 17.82 20.58 17.94 20.37 17.94 18.58"/>
            <polygon class="cls-32" points="17.82 18.51 17.82 18.37 17.45 18.16 17.2 18.16 12.4 20.93 12.4 21.07 12.77 21.29 13.01 21.29 17.82 18.51"/>
          </g>
          <g>
            <polygon class="cls-28" points="12.27 18.82 12.4 18.61 12.49 18.68 12.41 18.87 12.27 18.82"/>
            <polygon class="cls-28" points="17.82 16.05 17.94 16.26 17.86 16.3 17.73 16.15 17.82 16.05"/>
            <rect class="cls-28" x="12.77" y="20.86" width=".25" height=".18"/>
            <rect class="cls-28" x="12.73" y="18.92" width=".34" height=".28"/>
            <polygon class="cls-10" points="12.89 19.18 12.77 18.97 12.4 18.75 12.27 18.82 12.27 20.61 12.4 20.82 12.77 21.03 12.89 20.96 12.89 19.18"/>
            <g>
              <path class="cls-11" d="M12.66,19.56l-.16-.09,.08-.11,.08,.2Zm-.24-.08l.33,.19-.16-.41-.16,.22Z"/>
              <polygon class="cls-12" points="12.46 19.48 12.7 19.62 12.58 19.31 12.46 19.48"/>
            </g>
            <polygon class="cls-5" points="17.94 16.26 17.82 16.19 13.01 18.97 12.89 19.18 12.89 20.96 13.01 21.03 17.82 18.26 17.94 18.05 17.94 16.26"/>
            <polygon class="cls-3" points="17.82 16.19 17.82 16.05 17.45 15.83 17.2 15.83 12.4 18.61 12.4 18.75 12.77 18.97 13.01 18.97 17.82 16.19"/>
          </g>
          <g>
            <g>
              <polygon class="cls-33" points="13.82 19.91 13.15 19.52 13.11 19.55 13.79 19.95 13.82 19.91"/>
              <polygon class="cls-6" points="13.79 19.93 13.11 19.55 13.09 19.59 13.76 20.02 13.79 19.93"/>
              <polygon class="cls-9" points="13.76 19.98 13.09 19.59 13.09 19.64 13.76 20.02 13.76 19.98"/>
              <polygon class="cls-25" points="13.79 20.04 13.76 20.02 13.76 19.98 13.79 19.93 13.82 19.91 13.85 19.93 13.85 19.97 13.82 20.02 13.79 20.04"/>
            </g>
            <g>
              <polygon class="cls-33" points="13.82 20.63 13.15 20.24 13.11 20.26 13.79 20.67 13.82 20.63"/>
              <polygon class="cls-6" points="13.79 20.65 13.11 20.26 13.09 20.31 13.76 20.74 13.79 20.65"/>
              <polygon class="cls-9" points="13.76 20.7 13.09 20.31 13.09 20.35 13.76 20.74 13.76 20.7"/>
              <polygon class="cls-25" points="13.79 20.76 13.76 20.74 13.76 20.7 13.79 20.65 13.82 20.63 13.85 20.64 13.85 20.69 13.82 20.73 13.79 20.76"/>
            </g>
          </g>
          <g>
            <g>
              <polygon class="cls-33" points="13.82 22.3 13.15 21.91 13.11 21.93 13.79 22.34 13.82 22.3"/>
              <polygon class="cls-6" points="13.79 22.32 13.11 21.93 13.09 21.98 13.76 22.41 13.79 22.32"/>
              <polygon class="cls-9" points="13.76 22.37 13.09 21.98 13.09 22.02 13.76 22.41 13.76 22.37"/>
              <polygon class="cls-25" points="13.79 22.43 13.76 22.41 13.76 22.37 13.79 22.32 13.82 22.3 13.85 22.32 13.85 22.36 13.82 22.41 13.79 22.43"/>
            </g>
            <g>
              <polygon class="cls-33" points="13.82 23.02 13.15 22.63 13.11 22.65 13.79 23.05 13.82 23.02"/>
              <polygon class="cls-6" points="13.79 23.04 13.11 22.65 13.09 22.69 13.76 23.13 13.79 23.04"/>
              <polygon class="cls-9" points="13.76 23.08 13.09 22.69 13.09 22.74 13.76 23.13 13.76 23.08"/>
              <polygon class="cls-25" points="13.79 23.14 13.76 23.13 13.76 23.08 13.79 23.04 13.82 23.02 13.85 23.03 13.85 23.07 13.82 23.12 13.79 23.14"/>
            </g>
          </g>
        </g>
        <g>
          <g>
            <polygon class="cls-33" points="13.29 21.73 13.41 21.52 13.51 21.58 13.42 21.78 13.29 21.73"/>
            <polygon class="cls-33" points="18.84 18.96 18.96 19.17 18.87 19.21 18.74 19.06 18.84 18.96"/>
            <rect class="cls-33" x="13.78" y="23.76" width=".24" height=".18"/>
            <rect class="cls-33" x="13.74" y="21.83" width=".34" height=".28"/>
            <polygon class="cls-31" points="13.91 22.09 13.78 21.87 13.41 21.66 13.29 21.73 13.29 23.52 13.41 23.73 13.78 23.94 13.91 23.87 13.91 22.09"/>
            <polygon class="cls-6" points="18.96 19.17 18.84 19.1 14.03 21.87 13.91 22.09 13.91 23.87 14.03 23.94 18.84 21.17 18.96 20.95 18.96 19.17"/>
            <polygon class="cls-32" points="18.84 19.1 18.84 18.96 18.46 18.74 18.22 18.74 13.41 21.52 13.41 21.66 13.78 21.87 14.03 21.87 18.84 19.1"/>
          </g>
          <g>
            <polygon class="cls-28" points="13.29 19.41 13.41 19.2 13.51 19.26 13.42 19.45 13.29 19.41"/>
            <polygon class="cls-28" points="18.84 16.64 18.96 16.85 18.87 16.89 18.74 16.73 18.84 16.64"/>
            <rect class="cls-28" x="13.78" y="21.44" width=".24" height=".18"/>
            <rect class="cls-28" x="13.74" y="19.51" width=".34" height=".28"/>
            <polygon class="cls-10" points="13.91 19.76 13.78 19.55 13.41 19.34 13.29 19.41 13.29 21.19 13.41 21.41 13.78 21.62 13.91 21.55 13.91 19.76"/>
            <g>
              <path class="cls-11" d="M13.68,20.15l-.16-.09,.08-.11,.08,.2Zm-.24-.08l.33,.19-.16-.42-.16,.22Z"/>
              <polygon class="cls-12" points="13.48 20.06 13.72 20.2 13.6 19.9 13.48 20.06"/>
            </g>
            <polygon class="cls-5" points="18.96 16.85 18.84 16.78 14.03 19.55 13.91 19.76 13.91 21.55 14.03 21.62 18.84 18.84 18.96 18.63 18.96 16.85"/>
            <polygon class="cls-3" points="18.84 16.78 18.84 16.64 18.46 16.42 18.22 16.42 13.41 19.2 13.41 19.34 13.78 19.55 14.03 19.55 18.84 16.78"/>
          </g>
          <g>
            <g>
              <polygon class="cls-33" points="14.84 20.5 14.17 20.11 14.13 20.13 14.8 20.53 14.84 20.5"/>
              <polygon class="cls-6" points="14.8 20.52 14.13 20.13 14.1 20.18 14.77 20.61 14.8 20.52"/>
              <polygon class="cls-9" points="14.77 20.57 14.1 20.18 14.1 20.22 14.77 20.61 14.77 20.57"/>
              <polygon class="cls-25" points="14.8 20.62 14.77 20.61 14.77 20.57 14.8 20.52 14.84 20.5 14.87 20.51 14.87 20.56 14.84 20.6 14.8 20.62"/>
            </g>
            <g>
              <polygon class="cls-33" points="14.84 21.21 14.17 20.82 14.13 20.85 14.8 21.25 14.84 21.21"/>
              <polygon class="cls-6" points="14.8 21.23 14.13 20.85 14.1 20.89 14.77 21.32 14.8 21.23"/>
              <polygon class="cls-9" points="14.77 21.28 14.1 20.89 14.1 20.94 14.77 21.32 14.77 21.28"/>
              <polygon class="cls-25" points="14.8 21.34 14.77 21.32 14.77 21.28 14.8 21.23 14.84 21.21 14.87 21.23 14.87 21.27 14.84 21.32 14.8 21.34"/>
            </g>
          </g>
          <g>
            <g>
              <polygon class="cls-33" points="14.84 22.88 14.17 22.5 14.13 22.52 14.8 22.92 14.84 22.88"/>
              <polygon class="cls-6" points="14.8 22.91 14.13 22.52 14.1 22.56 14.77 23 14.8 22.91"/>
              <polygon class="cls-9" points="14.77 22.95 14.1 22.56 14.1 22.61 14.77 23 14.77 22.95"/>
              <polygon class="cls-25" points="14.8 23.01 14.77 23 14.77 22.95 14.8 22.91 14.84 22.88 14.87 22.9 14.87 22.94 14.84 22.99 14.8 23.01"/>
            </g>
            <g>
              <polygon class="cls-33" points="14.84 23.6 14.17 23.21 14.13 23.23 14.8 23.64 14.84 23.6"/>
              <polygon class="cls-6" points="14.8 23.62 14.13 23.23 14.1 23.28 14.77 23.71 14.8 23.62"/>
              <polygon class="cls-9" points="14.77 23.67 14.1 23.28 14.1 23.32 14.77 23.71 14.77 23.67"/>
              <polygon class="cls-25" points="14.8 23.73 14.77 23.71 14.77 23.67 14.8 23.62 14.84 23.6 14.87 23.62 14.87 23.66 14.84 23.71 14.8 23.73"/>
            </g>
          </g>
        </g>
        <g>
          <g>
            <polygon class="cls-33" points="14.3 22.32 14.43 22.1 14.52 22.17 14.44 22.36 14.3 22.32"/>
            <polygon class="cls-33" points="19.85 19.54 19.97 19.75 19.89 19.8 19.76 19.64 19.85 19.54"/>
            <rect class="cls-33" x="14.8" y="24.35" width=".24" height=".18"/>
            <rect class="cls-33" x="14.76" y="22.41" width=".34" height=".28"/>
            <polygon class="cls-31" points="14.92 22.67 14.8 22.46 14.43 22.25 14.3 22.32 14.3 24.1 14.43 24.31 14.8 24.53 14.92 24.46 14.92 22.67"/>
            <polygon class="cls-6" points="19.97 19.75 19.85 19.68 15.04 22.46 14.92 22.67 14.92 24.46 15.04 24.53 19.85 21.75 19.97 21.54 19.97 19.75"/>
            <polygon class="cls-32" points="19.85 19.68 19.85 19.54 19.48 19.33 19.24 19.33 14.43 22.1 14.43 22.25 14.8 22.46 15.04 22.46 19.85 19.68"/>
          </g>
          <g>
            <polygon class="cls-28" points="14.3 19.99 14.43 19.78 14.52 19.85 14.44 20.04 14.3 19.99"/>
            <polygon class="cls-28" points="19.85 17.22 19.97 17.43 19.89 17.48 19.76 17.32 19.85 17.22"/>
            <rect class="cls-28" x="14.8" y="22.03" width=".24" height=".18"/>
            <rect class="cls-28" x="14.76" y="20.09" width=".34" height=".28"/>
            <polygon class="cls-10" points="14.92 20.35 14.8 20.14 14.43 19.92 14.3 19.99 14.3 21.78 14.43 21.99 14.8 22.21 14.92 22.14 14.92 20.35"/>
            <g>
              <path class="cls-11" d="M14.69,20.74l-.16-.09,.08-.11,.08,.2Zm-.24-.08l.33,.19-.16-.41-.16,.23Z"/>
              <polygon class="cls-12" points="14.49 20.65 14.73 20.79 14.61 20.48 14.49 20.65"/>
            </g>
            <polygon class="cls-5" points="19.97 17.43 19.85 17.36 15.04 20.14 14.92 20.35 14.92 22.14 15.04 22.21 19.85 19.43 19.97 19.22 19.97 17.43"/>
            <polygon class="cls-3" points="19.85 17.36 19.85 17.22 19.48 17.01 19.24 17.01 14.43 19.78 14.43 19.92 14.8 20.14 15.04 20.14 19.85 17.36"/>
          </g>
        </g>
        <g>
          <g>
            <polygon class="cls-33" points="18.39 21.28 16.67 20.29 16.57 20.34 18.29 21.37 18.39 21.28"/>
            <polygon class="cls-6" points="18.29 21.34 16.57 20.34 16.51 20.46 18.22 21.56 18.29 21.34"/>
            <polygon class="cls-9" points="18.22 21.45 16.51 20.46 16.51 20.57 18.22 21.56 18.22 21.45"/>
            <polygon class="cls-25" points="18.29 21.6 18.22 21.56 18.22 21.45 18.29 21.34 18.39 21.28 18.45 21.32 18.45 21.43 18.39 21.55 18.29 21.6"/>
          </g>
          <g>
            <polygon class="cls-33" points="20.21 20.23 18.49 19.24 18.4 19.29 20.12 20.32 20.21 20.23"/>
            <polygon class="cls-6" points="20.11 20.28 18.4 19.29 18.33 19.41 20.05 20.51 20.11 20.28"/>
            <polygon class="cls-9" points="20.05 20.4 18.33 19.41 18.33 19.52 20.05 20.51 20.05 20.4"/>
            <polygon class="cls-25" points="20.11 20.55 20.05 20.51 20.05 20.4 20.11 20.28 20.21 20.23 20.28 20.27 20.28 20.38 20.21 20.5 20.11 20.55"/>
          </g>
        </g>
      </g>
      <polygon class="cls-19" points="13.34 27.42 25.42 20.44 28.62 22.29 16.54 29.26 13.34 27.42"/>
      <g>
        <polygon class="cls-5" points="26.88 23.28 26.21 23.67 25.93 23.1 25.8 22.51 26.21 22.04 26.88 21.66 26.88 23.28"/>
        <polygon class="cls-3" points="26.21 23.67 23.18 21.92 23.18 20.25 23.86 21.41 25.57 22.4 26.21 22.04 26.21 23.67"/>
      </g>
      <g>
        <polygon class="cls-5" points="19.98 27.27 19.31 27.66 19.02 27.09 18.9 26.5 19.31 26.03 19.98 25.64 19.98 27.27"/>
        <polygon class="cls-3" points="19.31 27.66 16.27 25.9 16.27 24.24 16.95 25.4 18.67 26.39 19.31 26.03 19.31 27.66"/>
      </g>
      <g>
        <polygon class="cls-2" points="28.62 18.36 28.62 19.9 28.53 20.71 28.32 20.41 28.25 18.64 28.62 18.36"/>
        <polygon class="cls-21" points="25.59 15.63 26.34 15.96 27.68 16.73 27.26 16.79 25.77 15.96 25.59 15.63"/>
        <polygon class="cls-27" points="27.68 16.73 27.31 16.62 27.76 18.02 28.52 18.73 28.62 18.36 27.68 16.73"/>
      </g>
      <polygon class="cls-3" points="14.73 21.9 25.59 15.63 27.31 16.62 16.44 23.6 14.73 21.9"/>
      <polygon class="cls-10" points="16.45 22.89 27.31 16.62 28.52 18.73 17.67 26.98 16.45 22.89"/>
      <polygon class="cls-5" points="17.67 25 28.52 18.73 28.53 20.71 17.67 26.98 17.67 25"/>
      <polygon class="cls-27" points="15.62 23.69 16.56 25.32 17.67 25 16.45 22.89 15.62 23.69"/>
      <polygon class="cls-39" points="14.28 22.92 15.62 23.69 16.45 22.89 14.73 21.9 14.28 22.92"/>
      <polygon class="cls-27" points="13.34 23.46 14.28 22.92 14.73 21.9 13.52 22.6 13.34 23.46"/>
      <polygon class="cls-17" points="16.56 25.32 16.56 26.86 17.67 26.98 17.67 25 16.56 25.32"/>
      <polygon class="cls-2" points="16.56 26.86 15.62 27.41 16.45 27.68 17.67 26.98 16.56 26.86"/>
      <polygon class="cls-21" points="13.34 25 14.28 26.63 15.62 27.41 16.56 26.86 16.56 25.32 15.62 23.69 14.28 22.92 13.34 23.46 13.34 25"/>
    </g>
  </g>
</svg>