<?xml version="1.0" encoding="UTF-8"?>
<svg id="_Слой_2" data-name="Слой 2" xmlns="http://www.w3.org/2000/svg" viewBox="0 0 24.29 24.29">
  <defs>
    <style>
      .cls-1 {
        fill: #23d959;
      }

      .cls-2 {
        fill: #3f68c1;
      }

      .cls-3 {
        fill: #efefef;
      }
    </style>
  </defs>
  <g id="_Слой_1-2" data-name="Слой 1">
    <circle class="cls-3" cx="12.15" cy="12.15" r="12.15"/>
    <g>
      <path class="cls-2" d="M12.4,20.41c-2.68,0-5.1,0-7.52,0-.82,0-.82,0-.82-.81,0-2.34,0-4.68,0-7.02,0-.28,.08-.44,.36-.55,1.13-.45,2.24-.92,3.36-1.38,.3-.12,.41-.04,.41,.29,0,.22,0,.43,0,.65,.01,.34,.11,.42,.44,.31,.39-.13,.77-.29,1.15-.45,.62-.26,1.24-.53,1.86-.79,.37-.15,.5-.04,.46,.35-.03,.3-.05,.59,.02,.88,.04,.2,.15,.3,.35,.3,.42,0,.84,0,1.27-.01,.18,0,.29-.12,.31-.31,.08-.8,.17-1.61,.26-2.41,.1-1.01,.2-2.02,.3-3.03,.06-.62,.13-1.23,.18-1.85,.02-.23,.13-.35,.35-.36,.71-.01,1.42-.01,2.13-.01,.18,0,.31,.09,.33,.29,.05,.48,.1,.96,.15,1.45,.17,1.76,.33,3.52,.53,5.28,.02,.19,.03,.38,.05,.56,.03,.33,.09,.39,.44,.41,.27,.01,.54,0,.81,0,.62,0,.65,.02,.65,.65,0,.86,0,1.73,0,2.59,0,1.47,0,2.93,0,4.4,0,.49-.05,.55-.53,.55-2.52-.03-5.04-.03-7.29,.02Zm-4.7-4.79h0c.55,0,1.1,.01,1.64,0,.29,0,.46-.13,.48-.37,.02-.49,.04-.99,.03-1.48,0-.41-.09-.49-.5-.55-.13-.02-.27-.03-.4-.03-1.01,.02-2.01,.06-3.02,.03-.23,0-.35,.11-.39,.32-.1,.49-.05,.98-.04,1.48,0,.51,.1,.59,.61,.6,.53,0,1.06,0,1.59,0Zm7.32,1.34c-.52,0-.65,.18-.45,.61,.18,.39,.49,.66,.93,.74,.16,.03,.26,.08,.23,.26-.05,.22,.02,.35,.26,.36,.23,0,.27-.16,.25-.33-.02-.21,.09-.28,.27-.33,.21-.06,.43-.1,.57-.28,.52-.69,.31-1.44-.26-1.81-.25-.16-.51-.29-.8-.38-.28-.09-.45-.29-.48-.59-.03-.22,.06-.39,.29-.44,.28-.06,.47,.02,.54,.26,.15,.5,.18,.43,.65,.44,.23,0,.34-.12,.31-.34-.06-.45-.31-.8-.73-.95-.28-.1-.4-.22-.35-.51,.03-.15-.07-.21-.21-.2-.13,0-.31-.02-.28,.19,.05,.31-.12,.42-.37,.52-.47,.19-.77,.54-.77,1.06,0,.53,.27,.91,.76,1.13,.29,.13,.6,.21,.84,.41,.19,.15,.29,.34,.2,.59-.09,.24-.27,.33-.51,.31-.26-.02-.48-.14-.51-.4-.03-.31-.19-.35-.39-.31Z"/>
      <path class="cls-1" d="M16.73,3.69c-.06,0-.13,0-.19,0-.46,0-.48,0-.26-.43,.32-.64,.86-.97,1.56-1.03,.37-.03,.74-.03,1.1-.07,.2-.02,.25,.03,.18,.22-.23,.68-.92,1.21-1.64,1.26-.25,.02-.5,.04-.75,.05Z"/>
    </g>
  </g>
</svg>